<svg xmlns="http://www.w3.org/2000/svg" height="511pt" version="1.1" viewBox="-33 1 511 511.999" width="511pt">
<g id="surface1">
<path d="M 362.03125 140.390625 C 359.21875 137.574219 355.402344 135.996094 351.425781 135.996094 L 271.089844 135.996094 C 262.808594 135.996094 256.089844 142.710938 256.089844 150.996094 C 256.089844 159.277344 262.808594 165.996094 271.089844 165.996094 L 315.210938 165.996094 L 237.816406 243.390625 L 191.621094 197.191406 C 188.804688 194.378906 184.992188 192.800781 181.011719 192.800781 C 177.035156 192.800781 173.21875 194.378906 170.40625 197.191406 L 113.601562 253.996094 C 107.746094 259.855469 107.746094 269.351562 113.601562 275.210938 C 119.460938 281.066406 128.957031 281.066406 134.816406 275.210938 L 181.011719 229.011719 L 227.210938 275.210938 C 230.023438 278.023438 233.839844 279.605469 237.816406 279.605469 C 241.796875 279.605469 245.609375 278.023438 248.421875 275.210938 L 336.425781 187.207031 L 336.425781 231.328125 C 336.425781 239.613281 343.140625 246.328125 351.425781 246.328125 C 359.707031 246.328125 366.425781 239.613281 366.425781 231.328125 L 366.425781 150.996094 C 366.425781 147.015625 364.84375 143.199219 362.03125 140.390625 Z M 362.03125 140.390625 " style=" stroke:none;fill-rule:nonzero;fill:rgb(0%,0%,0%);fill-opacity:1;" />
<path d="M 237.816406 0 C 124.082031 0 31.394531 91.835938 30.03125 205.253906 L 5.292969 277.40625 C -1.5 297.226562 -1.054688 314.671875 6.515625 325.273438 C 11.054688 331.625 18.058594 335.265625 25.738281 335.265625 L 30.015625 335.265625 L 30.015625 360.433594 C 30.015625 390.851562 54.765625 415.597656 85.183594 415.597656 C 99.058594 415.597656 110.351562 426.890625 110.351562 440.765625 L 110.351562 456.832031 C 110.351562 487.25 135.097656 512 165.515625 512 L 277.984375 512 C 308.402344 512 333.148438 487.25 333.148438 456.832031 L 333.148438 392.449219 C 365.011719 375.984375 392.074219 351.578125 411.820312 321.40625 C 433.929688 287.621094 445.617188 248.339844 445.617188 207.796875 C 445.617188 93.21875 352.398438 0 237.816406 0 Z M 311.890625 369.449219 C 306.5625 371.894531 303.148438 377.222656 303.148438 383.082031 L 303.148438 456.832031 C 303.148438 470.710938 291.859375 482 277.984375 482 L 165.515625 482 C 151.640625 482 140.351562 470.710938 140.351562 456.832031 L 140.351562 440.765625 C 140.351562 410.347656 115.601562 385.601562 85.183594 385.601562 C 71.308594 385.601562 60.015625 374.308594 60.015625 360.433594 L 60.015625 320.265625 C 60.015625 311.984375 53.300781 305.265625 45.015625 305.265625 L 30.582031 305.265625 C 30.328125 301.917969 30.6875 295.847656 33.671875 287.136719 L 59.207031 212.664062 C 59.742188 211.097656 60.015625 209.453125 60.015625 207.800781 C 60.015625 109.761719 139.777344 30 237.816406 30 C 335.855469 30 415.617188 109.761719 415.617188 207.800781 C 415.617188 277.070312 374.902344 340.523438 311.890625 369.449219 Z M 311.890625 369.449219 " style=" stroke:none;fill-rule:nonzero;fill:rgb(0%,0%,0%);fill-opacity:1;" />
</g>
</svg>