<svg xmlns="http://www.w3.org/2000/svg" width="200.914" height="27.445" viewBox="0 0 200.914 27.445">
    <defs>
        <style>
            .cls-1{fill:#09142d}.cls-2{fill:#445eff}
        </style>
    </defs>
    <g id="logo_mobelite" transform="translate(-86.766 -86.778)">
        <g id="Groupe_136" data-name="Groupe 136" transform="translate(139.071 86.778)">
            <path id="Tracé_110" d="M362.691 128.451a6.326 6.326 0 0 0-2.376-1.487 9.006 9.006 0 0 0-3.013-.5c-4.738 0-6.167 2.744-6.227 2.861l-.257.513-.259-.513c-.058-.117-1.487-2.861-6.226-2.861a8.992 8.992 0 0 0-3.013.5 6.318 6.318 0 0 0-2.376 1.487 7.091 7.091 0 0 0-1.583 2.549 10.578 10.578 0 0 0-.588 3.71v10.4h3.937v-10.4a4.694 4.694 0 0 1 1.152-3.527 4.441 4.441 0 0 1 5.837.02 4.656 4.656 0 0 1 1.171 3.507v10.4h3.937v-10.4a4.7 4.7 0 0 1 1.15-3.506 4.011 4.011 0 0 1 2.892-1.1 4.11 4.11 0 0 1 2.928 1.084 4.7 4.7 0 0 1 1.152 3.527v10.4h3.937v-10.4a10.588 10.588 0 0 0-.588-3.71 7.118 7.118 0 0 0-1.587-2.554z" class="cls-1" data-name="Tracé 110" transform="translate(-336.773 -118.165)"/>
            <path id="Rectangle_141" d="M0 0h3.937v18.155H0z" class="cls-1" data-name="Rectangle 141" transform="translate(107.695 8.797)"/>
            <path id="Tracé_111" d="M850.884 89.288a2.523 2.523 0 0 0-1.869.767 2.566 2.566 0 0 0-.767 1.906 2.656 2.656 0 0 0 4.521 1.871 2.553 2.553 0 0 0 .75-1.871 2.6 2.6 0 0 0-.75-1.908 2.507 2.507 0 0 0-1.885-.765z" class="cls-1" data-name="Tracé 111" transform="translate(-741.24 -88.763)"/>
            <path id="Tracé_112" d="M610.825 97.449a8.329 8.329 0 0 0-2.878-1.778 9.491 9.491 0 0 0-3.238-.589h-.371a9.527 9.527 0 0 0-3.744.717 9.054 9.054 0 0 0-2.036 1.192l-.465.363V86.778l-3.937 3.243V104.5a10.846 10.846 0 0 0 .719 4.027 9.007 9.007 0 0 0 1.983 3.069 8.6 8.6 0 0 0 3.046 1.945 11.131 11.131 0 0 0 3.974.682h.46a9.561 9.561 0 0 0 3.728-.717 8.867 8.867 0 0 0 2.934-1.983 8.513 8.513 0 0 0 1.193-1.553 9.325 9.325 0 0 0 .762-1.483 10.142 10.142 0 0 0 .718-3.835 10.418 10.418 0 0 0-.79-4.225 9.152 9.152 0 0 0-2.058-2.978zm-2.725 11.479a5.628 5.628 0 0 1-4.227 1.662 5.562 5.562 0 0 1-4.209-1.663 6.581 6.581 0 0 1 0-8.549 5.564 5.564 0 0 1 4.209-1.663 5.627 5.627 0 0 1 4.226 1.662 6.521 6.521 0 0 1 0 8.551z" class="cls-1" data-name="Tracé 112" transform="translate(-540.305 -86.778)"/>
            <path id="Tracé_113" d="M808.973 113.73h3.937V86.778l-3.937 3.243z" class="cls-1" data-name="Tracé 113" transform="translate(-710.181 -86.778)"/>
            <path id="Tracé_114" d="M892.576 94.6l-3.937 3.24v3.921h-3.213v3.519h3.213V113a9.344 9.344 0 0 0 .532 3.292 5.919 5.919 0 0 0 1.5 2.3 6.4 6.4 0 0 0 2.324 1.361 9.443 9.443 0 0 0 3.017.459h2.2v-3.633h-2.2a3.536 3.536 0 0 1-2.469-.872 3.789 3.789 0 0 1-.966-2.9v-7.719h5.636v-3.519h-5.636z" class="cls-1" data-name="Tracé 114" transform="translate(-770.639 -92.959)"/>
            <path id="Tracé_115" d="M502.62 129.175a9.462 9.462 0 0 0-3.091-1.987 11.318 11.318 0 0 0-7.939 0 9.461 9.461 0 0 0-3.091 1.987 8.8 8.8 0 0 0-2.02 3.03 10.605 10.605 0 0 0 0 7.67 8.8 8.8 0 0 0 2.02 3.03 9.461 9.461 0 0 0 3.091 1.987 11.318 11.318 0 0 0 7.939 0 9.462 9.462 0 0 0 3.091-1.987 8.8 8.8 0 0 0 2.02-3.03 10.6 10.6 0 0 0 0-7.67 8.8 8.8 0 0 0-2.02-3.03zm-2.834 11.14a6.206 6.206 0 0 1-8.453 0 6.521 6.521 0 0 1 0-8.551 6.206 6.206 0 0 1 8.453 0 6.52 6.52 0 0 1 0 8.551z" class="cls-1" data-name="Tracé 115" transform="translate(-454.59 -118.165)"/>
            <path id="Tracé_116" d="M717.764 129.172a9.014 9.014 0 0 0-3.069-1.984 11.263 11.263 0 0 0-7.92 0 9.45 9.45 0 0 0-3.091 1.987 8.8 8.8 0 0 0-2.02 3.03 10.6 10.6 0 0 0 0 7.67 8.807 8.807 0 0 0 2.02 3.031 9.453 9.453 0 0 0 3.091 1.986 10.592 10.592 0 0 0 3.969.719 10.034 10.034 0 0 0 5.605-1.545 8.668 8.668 0 0 0 3.213-3.757h-4.245a5.657 5.657 0 0 1-4.574 1.782 5.766 5.766 0 0 1-3.687-1.162 5.438 5.438 0 0 1-1.8-2.656 3.224 3.224 0 0 1-.147-.929h15.356v-1.3a10.145 10.145 0 0 0-.718-3.835 9.1 9.1 0 0 0-1.983-3.037zm-12.54 5.146a4.4 4.4 0 0 1 .3-1.1 5.1 5.1 0 0 1 1.694-2.19 6.457 6.457 0 0 1 7.031 0 5.3 5.3 0 0 1 1.829 2.354 2.7 2.7 0 0 1 .186.935z" class="cls-1" data-name="Tracé 116" transform="translate(-624.755 -118.165)"/>
            <path id="Tracé_117" d="M973.3 136.039a10.147 10.147 0 0 0-.718-3.835 8.78 8.78 0 0 0-5.053-5.016 11.263 11.263 0 0 0-7.92 0 9.455 9.455 0 0 0-3.091 1.987 8.8 8.8 0 0 0-2.02 3.03 10.6 10.6 0 0 0 0 7.67 8.809 8.809 0 0 0 2.02 3.031 9.455 9.455 0 0 0 3.091 1.986 10.593 10.593 0 0 0 3.969.719 10.034 10.034 0 0 0 5.605-1.545 8.67 8.67 0 0 0 3.213-3.757h-4.245a5.657 5.657 0 0 1-4.573 1.782 5.767 5.767 0 0 1-3.687-1.162 5.44 5.44 0 0 1-1.8-2.656 3.226 3.226 0 0 1-.147-.929H973.3zm-15.242-1.721a4.4 4.4 0 0 1 .3-1.1 5.1 5.1 0 0 1 1.694-2.19 6.457 6.457 0 0 1 7.031 0 5.3 5.3 0 0 1 1.829 2.354 2.7 2.7 0 0 1 .186.935z" class="cls-1" data-name="Tracé 117" transform="translate(-824.695 -118.165)"/>
        </g>
        <g id="Groupe_137" data-name="Groupe 137" transform="translate(86.766 86.778)">
            <path id="Tracé_118" d="M87.783 156.307a42.728 42.728 0 0 0-1.017 9.29v3.115h9.345V165.6a9.347 9.347 0 0 0-8.328-9.293z" class="cls-2" data-name="Tracé 118" transform="translate(-86.766 -141.761)"/>
            <path id="Tracé_119" d="M104.792 86.779a42.439 42.439 0 0 0-4.454 8.519 15.581 15.581 0 0 1 12.736 15.317v3.115h9.345v-3.115a24.932 24.932 0 0 0-17.627-23.836z" class="cls-2" data-name="Tracé 119" transform="translate(-97.499 -86.779)"/>
            <path id="Tracé_120" d="M215.884 86.779l-7.245 5.964a30.989 30.989 0 0 1 5.654 17.873v3.115h9.346v-3.115a40.316 40.316 0 0 0-7.755-23.837z" class="cls-2" data-name="Tracé 120" transform="translate(-183.141 -86.779)"/>
        </g>
    </g>
</svg>
