<?xml version="1.0" standalone="no"?>
<!DOCTYPE svg PUBLIC "-//W3C//DTD SVG 1.1//EN" "http://www.w3.org/Graphics/SVG/1.1/DTD/svg11.dtd" >
<svg xmlns="http://www.w3.org/2000/svg" xmlns:xlink="http://www.w3.org/1999/xlink" version="1.1">
<metadata></metadata>
<defs>
<font id="digitaltmedium" horiz-adv-x="1080" >
<font-face units-per-em="2048" ascent="1636" descent="-412" />
<missing-glyph horiz-adv-x="600" />
<glyph horiz-adv-x="0" />
<glyph unicode="&#xd;" horiz-adv-x="682" />
<glyph unicode=" "  horiz-adv-x="600" />
<glyph unicode="&#x09;" horiz-adv-x="600" />
<glyph unicode="&#xa0;" horiz-adv-x="600" />
<glyph unicode="!" horiz-adv-x="512" d="M88 800q0 196 8 400q95 4 175 4q68 0 165 -4q8 0 14 -6t6 -14q8 -214 8 -380q0 -175 -12 -400q-72 -4 -141 -4q-127 0 -195 4q-8 0 -14 6t-6 14q-8 214 -8 380zM102 172q0 66 2 138q73 4 148 4q66 0 172 -4q8 0 14 -6t6 -14q2 -82 2 -154q0 -64 -2 -136q-44 -2 -108 -2 q-92 0 -212 6q-8 0 -14 6t-6 14q-2 78 -2 148z" />
<glyph unicode="&#x22;" horiz-adv-x="840" d="M60 994v98.5v101.5q0 8 5 14t13 6q24 1 141 1q118 0 141 -1q8 0 14 -6t6 -14q0 -34 0.5 -97.5t0.5 -94.5q-7 -60 -39 -179t-46 -159q-26 -2 -84 -2q-62 0 -112 2q-6 29 -20 145.5t-20 184.5zM484 994v98.5v101.5q0 8 5 14t13 6q24 1 141 1q118 0 141 -1q8 0 14 -6t6 -14 q0 -34 0.5 -97.5t0.5 -94.5q-7 -60 -39 -179t-46 -159q-26 -2 -84 -2q-62 0 -112 2q-6 29 -20 145.5t-20 184.5z" />
<glyph unicode="#" horiz-adv-x="1044" d="M54 384q0 10 4 116q40 2 166 2v39.5v38.5v120q-126 3 -134 4q-8 0 -14 6t-6 14q-2 48 -2 64q0 10 4 116q38 2 155 2q2 112 5 254q68 2 116 2q46 0 100 -2q8 0 14 -6t6 -14q4 -167 4 -232h63h40h36q2 106 5 252q68 2 116 2q46 0 100 -2q8 0 14 -6t6 -14q4 -170 4 -234 q108 -1 152 -2q8 0 14 -6t6 -14q0 -92 -2 -184q-10 0 -167 -2q1 -90 1 -118v-36.5v-41.5q94 -1 134 -2q8 0 14 -6t6 -14q0 -96 -2 -184q-28 -2 -155 -2q-2 -111 -5 -254q-58 -2 -100 -2q-48 0 -116 2q-8 0 -14 6t-6 14q-4 146 -5 232h-49.5h-32.5h-56q-2 -108 -5 -252 q-58 -2 -100 -2q-48 0 -116 2q-8 0 -14 6t-6 14q-4 148 -5 236q-143 3 -151 4q-8 0 -14 6t-6 14q-2 48 -2 64zM475 696q1 -89 1 -116v-36v-40h85h47v38.5v37.5v116h-65h-68z" />
<glyph unicode="$" horiz-adv-x="940" d="M70 50l46 318q208 -64 336 -64q58 0 86 22t28 56q0 13 -5 24.5t-11 19.5t-20 16t-24.5 12.5t-31.5 11t-33.5 9.5t-38.5 9q-42 10 -65 17t-63 22t-64 31t-54 43t-46 59t-28 77.5t-12 100.5q0 76 14.5 132.5t43 94t67.5 59.5t93 35q2 178 4 285q96 4 155 4q62 0 185 -4 q8 0 14 -6t6 -14q2 -110 4 -252q120 -11 236 -34l-41 -288q-79 32 -170 52.5t-173 20.5q-26 0 -46 -2.5t-37.5 -9.5t-27 -20t-9.5 -33q0 -10 3 -19t11 -16.5t15.5 -14t22.5 -12.5t25.5 -10.5t30.5 -10.5t32 -9.5t36 -9.5q46 -12 71.5 -20t70 -25t71 -32.5t60 -42t51.5 -56 t31 -71t13 -91.5q0 -80 -18 -143t-53 -106t-81 -71q-46 -26 -108 -42q-3 -244 -4 -292q-96 -4 -155 -4q-62 0 -185 4q-8 0 -14 6t-6 14q-2 112 -4 254q-120 6 -234 16z" />
<glyph unicode="%" horiz-adv-x="1512" d="M33 914q0 73 17.5 126.5t52 86t80 49t105.5 18.5q72 0 121 -8t87 -26.5t60 -51t32.5 -79.5t10.5 -115q0 -73 -17 -125.5t-50.5 -85t-78.5 -49t-104 -18.5q-90 0 -147 12t-96.5 44t-56 85t-16.5 137zM134 68q0 2 2 6t7 10t9 11.5t12 15.5q8 11 13 17q126 162 420.5 533 t397.5 502q19 1 141 1q60 0 134 -5t109 -11q6 0 9 -4t3 -10q0 -3 -3 -8t-9.5 -14.5t-13.5 -19t-20 -26t-23 -30.5q-184 -250 -410 -536t-382 -460q-20 0 -140 -1q-60 0 -134 4.5t-109 10.5q-6 0 -9.5 4.5t-3.5 9.5zM276 914q0 -40 9 -52t31 -12t31 12t9 52q0 22 -3 35 t-9 19.5t-13 8.5t-19 2q-18 0 -27 -12.5t-9 -52.5zM953 286q0 73 17.5 126.5t52 86t80 49t105.5 18.5q72 0 121 -8t87 -26.5t60 -51t32.5 -79.5t10.5 -115q0 -73 -17 -125.5t-50.5 -85t-78.5 -49t-104 -18.5q-90 0 -147 12t-96.5 44t-56 85t-16.5 137zM1196 286q0 -40 9 -52 t31 -12t31 12t9 52q0 22 -3 35t-9 19.5t-13 8.5t-19 2q-18 0 -27 -12.5t-9 -52.5z" />
<glyph unicode="&#x26;" horiz-adv-x="1120" d="M36 362q0 76 53 147t148 121q-95 94 -95 242q0 70 18 123t51 87.5t85 56t114 30.5t142 9q62 0 146 -10t144 -24l-41 -294l-223 13q-50 0 -76 -15.5t-26 -49.5q0 -66 112 -66l-30 -131h8q46 79 102 133q108 2 210 2q108 0 230 -4q8 0 14 -6t6 -14q2 -48 2 -112 q0 -72 -2 -140q-92 0 -148 -1q26 -88 26 -163q0 -54 -14 -99.5t-48 -84t-85.5 -65.5t-129 -42t-175.5 -15q-51 0 -92.5 2t-86.5 7t-81 14t-72 24t-63 35t-51 48t-39 62.5t-24 80t-9 99.5zM446 398q0 -40 23.5 -57t78.5 -17q54 0 77 15t23 45q0 39 -3 77q-51 2 -119 7 q-37 0 -58.5 -19t-21.5 -51z" />
<glyph unicode="'" horiz-adv-x="416" d="M60 994v98.5v101.5q0 8 5 14t13 6q24 1 141 1q118 0 141 -1q8 0 14 -6t6 -14q0 -34 0.5 -97.5t0.5 -94.5q-7 -60 -39 -179t-46 -159q-26 -2 -84 -2q-62 0 -112 2q-6 29 -20 145.5t-20 184.5z" />
<glyph unicode="(" horiz-adv-x="580" d="M72 601q0 111 13 218.5t39 217t54 202t72 217.5l316 -41q-40 -226 -59.5 -417.5t-19.5 -396.5t19.5 -396t59.5 -418l-316 -41q-44 125 -72 217.5t-54 202t-39 217t-13 218.5z" />
<glyph unicode=")" horiz-adv-x="580" d="M54 -213q40 226 59.5 417.5t19.5 396.5t-19.5 396t-59.5 418l316 41q44 -125 72 -217.5t54 -202t39 -217t13 -218.5t-13 -218.5t-39 -217t-54 -202t-72 -217.5z" />
<glyph unicode="*" horiz-adv-x="760" d="M32 944q0 22 11 60t27 66t30 24l121 -39q41 -18 131 -88q-38 106 -44 151v128q0 14 29 20t63 6q32 0 62 -7t30 -19v-128q-6 -46 -44 -151q90 70 131 88l121 39q14 4 30.5 -24t26.5 -65t10 -60q1 -21 -9 -25l-122 -40q-46 -10 -158 -6q94 -64 124 -96l76 -104 q10 -13 -17 -40.5t-65 -49.5t-56 -22q-8 0 -11 4l-75 104q-20 38 -54 148q-34 -110 -54 -148l-75 -104q-3 -5 -11 -5q-18 0 -56 22.5t-64.5 50.5t-17.5 40l76 104q30 32 124 96q-112 -4 -158 6l-122 40q-10 2 -10 24z" />
<glyph unicode="+" horiz-adv-x="996" d="M57 582q0 44 3 158q59 2 289 4q2 118 7 316q70 3 140 3q81 0 164 -3q8 0 14 -6t6 -14q6 -278 6 -296q214 -2 270 -4q8 0 14 -6t6 -14q2 -28 2 -124q0 -90 -2 -156q-34 -2 -290 -4q-2 -137 -6 -296q-70 -3 -140 -3q-81 0 -164 3q-8 0 -14 6t-6 14q-4 86 -6 278 q-240 4 -270 6q-8 0 -14 6t-6 14q-3 76 -3 118z" />
<glyph unicode="," horiz-adv-x="420" d="M58 172q0 66 2 138q73 4 148 4q66 0 172 -4q8 0 14 -6t6 -14q0 -34 0.5 -97.5t0.5 -94.5q-8 -60 -38 -181t-43 -157q-84 -4 -180 -4q0 11 3 113q3 101 5 133q-40 0 -68 2q-8 0 -14 6t-6 14q-2 78 -2 148z" />
<glyph unicode="-" horiz-adv-x="836" d="M58 602q0 59 2 146q96 4 443 4q170 0 293 -4q8 0 14 -6t6 -14q2 -62 2 -170q0 -39 -2 -126q-98 -4 -343 -4q-48 0 -192.5 3t-200.5 5q-8 0 -14 6t-6 14q-2 104 -2 146z" />
<glyph unicode="." horiz-adv-x="420" d="M58 172q0 66 2 138q73 4 148 4q66 0 172 -4q8 0 14 -6t6 -14q2 -82 2 -154q0 -64 -2 -136q-44 -2 -108 -2q-92 0 -212 6q-8 0 -14 6t-6 14q-2 78 -2 148z" />
<glyph unicode="/" horiz-adv-x="748" d="M-10 -86q0 4 18 69q111 410 176 625q128 422 232 692q96 4 177 4q75 0 189 -4q14 -2 14 -14q0 -4 -20 -76q-70 -265 -172 -616q-126 -429 -228 -694q-96 -4 -177 -4q-77 0 -195 4q-14 2 -14 14z" />
<glyph unicode="0" horiz-adv-x="1060" d="M52 600q0 290 118.5 447t333.5 167q97 0 172.5 -13t137.5 -43t105 -77t72 -116t43 -159t14 -206q0 -292 -115 -447t-329 -165q-117 0 -203.5 19t-154.5 63t-110 115t-63 173.5t-21 241.5zM466 600q0 -88 5 -141.5t17 -80t25.5 -34.5t36.5 -8t36.5 8t25.5 34.5t17 80.5 q5 53 5 141q0 70 -4.5 119t-11.5 77t-19.5 43.5t-24.5 20t-30 4.5q-15 0 -24.5 -3t-19.5 -12.5t-15.5 -27t-10 -47t-6.5 -72.5t-2 -102z" />
<glyph unicode="1" horiz-adv-x="576" d="M40 882q0 147 6 282q54 12 132 25t125 17q78 0 193 -4q8 0 14 -6t6 -14q8 -376 8 -582q0 -280 -8 -600q-95 -4 -175 -4q-82 0 -205 4q-8 0 -14 6t-6 14q-8 376 -8 580q0 146 2 284z" />
<glyph unicode="2" horiz-adv-x="928" d="M80 330q0 58 13 109t30.5 88t49.5 72.5t57.5 57t66.5 46.5t64 36.5t64 30.5q23 11 34 16.5t28.5 14.5t26 15t17.5 14t13 16t4 16q0 27 -32 42t-82 15q-42 0 -85 -7.5t-82 -22.5t-61 -25q-23 -10 -53 -26l-45 332q181 44 306 44q68 0 114 -2t101 -10t92 -22.5t73.5 -40 t58 -62t34.5 -90t13 -121.5q0 -37 -6 -70.5t-15 -60.5t-25 -53t-31.5 -45.5t-38 -39t-40 -33t-43.5 -29t-42.5 -24.5t-42.5 -23q-74 -39 -96 -55q-38 -28 -38 -59v-34h21q242 0 365 -4q8 0 14 -6t6 -14q2 -120 2 -172q0 -80 -2 -148q-95 -4 -355 -4q-50 0 -211 3t-214 5 q-8 0 -14 6t-6 14q-8 177 -8 310z" />
<glyph unicode="3" horiz-adv-x="872" d="M48 1180q136 34 324 34q86 0 152 -10t122 -34t91 -63.5t55 -99.5q20 -61 20 -141q0 -158 -116 -258q84 -46 130 -110t46 -136q0 -67 -13 -120.5t-36 -92t-58 -67t-74 -46t-91 -28t-102 -14.5t-112 -4q-98 0 -167 6t-169 22l36 306h282q55 0 78.5 18t23.5 56 q0 35 -23.5 54.5t-64.5 19.5h-208v278h170q51 0 82.5 17t31.5 55q0 40 -28 57t-80 17h-266z" />
<glyph unicode="4" horiz-adv-x="976" d="M26 290q0 6 2 94q60 194 153.5 460t138.5 360q128 2 270 3q111 0 306 -7q8 0 14 -6t6 -14q8 -376 8 -580q0 -280 -8 -600q-74 -4 -160 -4q-79 0 -188 4q-8 0 -14 6t-6 14q-2 112 -2 168h-149q-226 0 -349 4q-8 0 -14 6t-6 14q-2 36 -2 78zM395 500q143 -2 153 -2v50.5 v51.5q0 108 8 342q-82 -250 -161 -442z" />
<glyph unicode="5" horiz-adv-x="912" d="M80 18l36 306h292q54 0 78 20t24 60q0 36 -24 58t-64 22h-314q-10 0 -15 2t-5 10q-4 56 -4 116q0 268 8 588q95 4 383 4q242 0 365 -4q8 0 14 -6t6 -14q2 -122 2 -173q0 -78 -2 -147q-92 -4 -408 -4v-104q25 2 48 2q84 0 153.5 -21t117 -57t79.5 -85t47 -105 q15 -58 15 -120q0 -67 -13 -120.5t-36 -92.5t-58 -68t-74 -47t-90.5 -29t-102 -15t-112.5 -4q-100 0 -174 6t-172 22z" />
<glyph unicode="6" horiz-adv-x="1000" d="M52 600q0 138 25 244t69.5 176t112 113.5t146 62t177.5 18.5q142 0 354 -34l-42 -316h-352q-32 0 -51 -18q-19 -20 -30 -76q25 5 73 9.5t74 4.5q96 0 170.5 -29t119.5 -80t67.5 -115t22.5 -140q0 -218 -105 -325t-323 -107q-62 0 -115 7.5t-106 26.5t-95 49.5t-79 78.5 t-61 110.5t-38 148.5t-14 191zM465 416q0 -40 23.5 -68t67.5 -28q32 0 52 26t20 70q0 38 -24 66.5t-64 28.5q-34 0 -54.5 -28.5t-20.5 -66.5z" />
<glyph unicode="7" horiz-adv-x="900" d="M26 1048q0 80 2 152q96 4 519 4q226 0 349 -4q8 0 14 -6t6 -14q2 -51 2 -97q0 -48 -2 -103q-6 -13 -45 -81.5t-76.5 -140.5t-78.5 -157t-66.5 -161t-25.5 -124l-2 -150q0 -84 2 -166q-90 -4 -198 -4t-230 4q-8 0 -14 6t-6 14v230q42 147 115 288.5t185 317.5 q-325 4 -428 8q-8 0 -14 6t-6 14q-2 115 -2 164z" />
<glyph unicode="8" horiz-adv-x="1048" d="M40 346q0 74 47 145.5t129 116.5q-116 101 -116 258q0 81 20 141.5t56 99.5t92 63t122.5 34t153.5 10t153.5 -10t122.5 -34t92 -63t56 -99.5t20 -141.5q0 -157 -116 -258q82 -45 129 -116.5t47 -145.5q0 -48 -6 -89t-19 -74t-30 -59t-41.5 -46t-50 -35t-58.5 -25.5 t-65.5 -17t-73 -10.5t-77.5 -5t-82 -1t-82 1t-78 5t-73 10.5t-65.5 17t-59 25.5t-50 35t-41.5 46t-30 59t-19.5 74t-6.5 89zM436 378q0 -40 27 -63t81 -23t81 23t27 63t-29 61t-78 21t-79 -21t-30 -61zM450 840q0 -34 27.5 -55.5t67.5 -21.5t66.5 21.5t26.5 55.5 q0 38 -26 59t-68 21t-68 -21t-26 -59z" />
<glyph unicode="9" horiz-adv-x="1000" d="M52 782q0 218 105 325t323 107q62 0 115 -7.5t106 -26.5t95 -49.5t79 -78.5t61 -110.5t38 -149t14 -190.5q0 -138 -25 -244t-69.5 -176t-112 -113.5t-146 -62t-177.5 -18.5q-142 0 -354 34l42 316h352q32 0 51 18q19 20 30 76q-25 -5 -73 -9.5t-74 -4.5q-96 0 -170.5 29 t-119.5 80t-67.5 115t-22.5 140zM412 786q0 -38 24 -66.5t64 -28.5q34 0 54.5 28.5t20.5 66.5q0 40 -23.5 68t-67.5 28q-32 0 -52 -26t-20 -70z" />
<glyph unicode=":" horiz-adv-x="420" d="M58 172q0 66 2 138q73 4 148 4q66 0 172 -4q8 0 14 -6t6 -14q2 -82 2 -154q0 -64 -2 -136q-44 -2 -108 -2q-92 0 -212 6q-8 0 -14 6t-6 14q-2 78 -2 148zM58 772q0 66 2 138q73 4 148 4q66 0 172 -4q8 0 14 -6t6 -14q2 -82 2 -154q0 -64 -2 -136q-44 -2 -108 -2 q-92 0 -212 6q-8 0 -14 6t-6 14q-2 78 -2 148z" />
<glyph unicode=";" horiz-adv-x="420" d="M58 172q0 66 2 138q73 4 148 4q66 0 172 -4q8 0 14 -6t6 -14q0 -34 0.5 -97.5t0.5 -94.5q-8 -60 -38 -181t-43 -157q-84 -4 -180 -4q0 11 3 113q3 101 5 133q-40 0 -68 2q-8 0 -14 6t-6 14q-2 78 -2 148zM58 772q0 66 2 138q73 4 148 4q66 0 172 -4q8 0 14 -6t6 -14 q2 -82 2 -154q0 -64 -2 -136q-44 -2 -108 -2q-92 0 -212 6q-8 0 -14 6t-6 14q-2 78 -2 148z" />
<glyph unicode="&#x3c;" horiz-adv-x="816" d="M46 634q0 62 4 119q38 20 192.5 94t213.5 101q171 79 286 128q8 4 16 1q6 -3 10 -11q12 -25 20 -103.5t8 -173.5q-34 -17 -244 -115q-110 -51 -176 -73q70 -25 202 -87q106 -49 197 -94q20 -10 20 -30q0 -48 -6 -145t-15 -137q-44 18 -344 156q-43 20 -176.5 86 t-183.5 92q-12 4 -14 24q-10 74 -10 168z" />
<glyph unicode="=" horiz-adv-x="888" d="M70 396q0 46 2 132q95 4 451 4q190 0 313 -4q8 0 14 -6t6 -14q2 -40 2 -110q0 -74 -2 -150q-30 -2 -167.5 -3t-195.5 -1q-48 0 -197 3t-204 5q-8 0 -14 6t-6 14q-2 116 -2 124zM70 820q0 46 2 132q95 4 451 4q190 0 313 -4q8 0 14 -6t6 -14q2 -36 2 -142q0 -30 -2 -118 q-30 -2 -167.5 -3t-195.5 -1q-48 0 -197 3t-204 5q-8 0 -14 6t-6 14q-2 116 -2 124z" />
<glyph unicode="&#x3e;" horiz-adv-x="816" d="M60 412q30 16 245 116q110 50 176 72q-70 26 -203 88q-113 52 -197 94q-19 10 -19 30q0 48 6 145t14 137q35 -14 345 -158q44 -20 177.5 -86t182.5 -90q11 -5 13 -25q10 -77 10 -167q0 -62 -3 -120q-38 -20 -191.5 -93t-215.5 -101q-172 -78 -286 -128q-8 -4 -15 -1 t-11 10q-12 25 -20 104t-8 173z" />
<glyph unicode="?" horiz-adv-x="796" d="M28 1170q178 43 367 43q74 0 133.5 -8.5t111.5 -29.5t86 -53.5t54 -83.5t20 -118q0 -75 -33 -139q-33 -63 -89 -123q-26 -28 -40 -43t-35 -43t-32 -51t-20 -55t-9 -66q-60 -4 -151 -4q-93 0 -185 4q-8 0 -14 6t-6 14q0 58 14.5 109t37.5 87t51 67t56 55.5t51 45.5 t37.5 42.5t14.5 41.5q0 60 -82 60q-67 0 -165 -34t-128 -56zM192 172q0 66 2 138q73 4 148 4q66 0 172 -4q8 0 14 -6t6 -14q2 -82 2 -154q0 -64 -2 -136q-44 -2 -108 -2q-92 0 -212 6q-8 0 -14 6t-6 14q-2 78 -2 148z" />
<glyph unicode="@" horiz-adv-x="1404" d="M56 600q0 116 9 214t26 176.5t43 142t58 111t74 83t87 59t101 38t113 20.5t125 6q164 0 297.5 -11t288.5 -37q33 -6 55 -26q23 -20 23 -50q4 -296 3 -612q1 -208 -3 -522q-198 -30 -352 -30q-72 0 -122.5 3t-104.5 13.5t-89.5 29t-69 50t-52.5 76.5t-30.5 108.5 t-11.5 145.5q0 72 11 130.5t31 102t52 75.5t70 53t89 34t105 18t122 5q0 24 -1 70t-1 68h-334q-31 0 -54.5 -4.5t-49 -18t-44 -37.5t-36.5 -65t-28.5 -97t-17 -137.5t-6.5 -184.5q0 -80 6 -148t16 -119t26 -92t33 -69.5t39 -50t42.5 -33.5t45 -19.5t45.5 -10t46 -2.5h551 l38 -284q-260 -40 -470 -40q-105 0 -193.5 12t-170.5 40t-147 73.5t-119 114t-89.5 157.5t-55 208t-19.5 263zM890 594q0 -30 1 -49t4 -35t8 -23t14.5 -13t21 -7.5t31.5 -1.5h36v250h-24q-21 0 -35.5 -4.5t-28.5 -16.5t-21 -37t-7 -63z" />
<glyph unicode="A" horiz-adv-x="1040" d="M20 16q0 8 9 63q26 164 60.5 340.5t88.5 437.5t70 343q100 4 275 4q163 0 285 -4q8 0 15 -6t9 -14q22 -112 74.5 -365t90 -447t63.5 -368q-94 -4 -174 -4q-128 0 -196 4q-8 0 -15 6t-9 14q-22 115 -36 200h-186q-16 -107 -38 -220q-96 -4 -166 -4q-83 0 -204 4 q-8 0 -12 4.5t-4 11.5zM478 480h112q-12 82 -32 234t-30 214q-10 -82 -26 -234t-24 -214z" />
<glyph unicode="B" horiz-adv-x="1032" d="M96 626q0 100 2 277t2 277q222 34 390 34q68 0 115 -2t101.5 -10t90.5 -22.5t72 -40t56.5 -62t33.5 -89.5q13 -54 13 -122q0 -158 -116 -258q84 -46 130 -110t46 -136q0 -67 -13 -120.5t-36 -92t-58 -67t-74 -46t-91 -28t-102 -14.5t-112 -4q-214 0 -426 22q-8 2 -14 9 t-6 15q0 92 -2 290t-2 300zM488 762h16q49 0 81.5 22t32.5 62q0 38 -30.5 59.5t-72.5 21.5q-17 0 -25 -1q0 -22 -1 -76t-1 -88zM490 465q0 -53 4 -161h34q55 0 79.5 20t24.5 60q0 36 -26 58q-24 23 -64 23h-52z" />
<glyph unicode="C" horiz-adv-x="830" d="M52 600q0 139 25 244.5t71 175.5t115 113.5t151.5 62t187.5 18.5q56 0 106 -8t122 -26l-43 -314l-185 13q-24 2 -42 -3.5t-35.5 -23.5t-29 -49t-18.5 -82t-7 -121t6 -120.5t17 -82t28 -48.5t36 -23t45 -4l185 12l41 -316q-120 -22 -230 -22q-58 0 -107 4t-97 14.5t-87 27 t-75 42t-63 59t-50 78.5t-37 101t-22 126t-8 152z" />
<glyph unicode="D" horiz-adv-x="1052" d="M96 600q0 100 2 290t2 290q222 34 390 34q105 0 187.5 -18.5t151.5 -62t115 -113.5t71 -175t25 -245q0 -82 -8 -152t-22 -126t-37 -101t-50 -78.5t-63 -59t-75 -42t-87 -27t-97 -14.5t-107 -4q-20 0 -43 1t-41 1t-48 2t-43 3t-50 4t-46 4t-53 5t-50 4q-8 0 -14 6t-6 14 q0 92 -2 275t-2 285zM492 600q0 -119 4 -264h34q15 0 25.5 3t22 12t19 27.5t13.5 47t9 72.5t3 102q0 70 -5 119t-12 77t-20 44t-25 20.5t-30 4.5h-34q-4 -166 -4 -265z" />
<glyph unicode="E" horiz-adv-x="908" d="M92 600q0 280 8 600q95 4 415 4q226 0 349 -4q8 0 14 -6t6 -14q2 -122 2 -173q0 -78 -2 -147q-84 -4 -318 -4h-76q-2 -68 -2 -104q179 -1 240 -4q8 0 14 -6t6 -14q2 -82 2 -150q0 -62 -2 -134h-260q0 -35 2 -104h24q245 0 354 -4q8 0 14 -6t6 -14q2 -122 2 -173 q0 -78 -2 -147q-95 -4 -343 -4q-50 0 -211 3t-214 5q-8 0 -14 6t-6 14q-8 376 -8 580z" />
<glyph unicode="F" horiz-adv-x="840" d="M92 600q0 280 8 600q95 4 415 4q198 0 321 -4q8 0 14 -6t6 -14q2 -122 2 -173q0 -78 -2 -147q-96 -4 -291 -4h-67q0 -26 -1 -83t-1 -89q164 -2 224 -4q8 0 14 -6t6 -14q2 -122 2 -173q0 -78 -2 -147q-72 -4 -242 -4q2 -280 2 -336q-95 -4 -175 -4q-82 0 -205 4 q-8 0 -14 6t-6 14q-8 376 -8 580z" />
<glyph unicode="G" horiz-adv-x="1004" d="M52 600q0 139 25 244.5t71 175.5t115 113.5t151.5 62t187.5 18.5q146 0 358 -34l-42 -316h-356q-18 0 -30.5 -4.5t-25 -20t-19.5 -43.5t-12 -77t-5 -119q0 -58 3.5 -102t11 -72t15.5 -47t21 -28t24 -12t27 -3h40q0 98 -8 304q88 4 158 4q74 0 174 -4q8 0 14 -6t6 -14 q8 -185 8 -280q0 -164 -8 -306q-85 -15 -126 -21.5t-102 -11.5t-130 -5q-58 0 -107 4t-97 14.5t-87 27t-75 42t-63 59t-50 78.5t-37 101t-22 126t-8 152z" />
<glyph unicode="H" horiz-adv-x="1100" d="M92 600q0 280 8 600q95 4 175 4q82 0 205 -4q8 0 14 -6t6 -14q4 -184 4 -420h132q0 272 4 440q95 4 175 4q82 0 205 -4q8 0 14 -6t6 -14q8 -376 8 -580q0 -280 -8 -600q-95 -4 -175 -4q-82 0 -205 4q-8 0 -14 6t-6 14q-3 132 -4 400h-132q0 -260 -4 -420q-95 -4 -175 -4 q-82 0 -205 4q-8 0 -14 6t-6 14q-8 376 -8 580z" />
<glyph unicode="I" horiz-adv-x="560" d="M92 600q0 280 8 600q95 4 175 4q82 0 205 -4q8 0 14 -6t6 -14q8 -376 8 -580q0 -280 -8 -600q-95 -4 -175 -4q-82 0 -205 4q-8 0 -14 6t-6 14q-8 376 -8 580z" />
<glyph unicode="J" horiz-adv-x="868" d="M64 -8l15 328l199 -16q27 -2 45 0t36.5 14t29 35t17 63t6.5 98q0 180 2 342q-153 3 -304 8q-8 0 -14 6t-6 14q-2 115 -2 164q0 80 2 152q95 4 439 4q148 0 271 -4q8 0 14 -6t6 -14q8 -376 8 -656q0 -98 -13 -176t-37 -136t-61 -101t-81 -70.5t-102 -44t-119 -23.5 t-137 -7q-15 0 -30 0.5t-26 1t-27 2.5t-23.5 3t-26 4t-24.5 4t-28.5 5.5t-28.5 5.5z" />
<glyph unicode="K" horiz-adv-x="1066" d="M92 600q0 280 8 600q95 4 175 4q82 0 205 -4q8 0 14 -6t6 -14v-70q0 -50 -7 -330h22h22q18 56 66.5 195t71.5 210q3 8 12 13.5t19 6.5q76 5 160 5q108 0 200 -11q-62 -262 -170 -474q-60 -100 -156 -106v-3q51 -3 92.5 -30.5t69.5 -75.5q88 -174 168 -510 q-92 -11 -210 -11q-84 0 -160 5q-10 0 -19 6t-12 14q-49 150 -139 476h-38q0 -16 4.5 -170t4.5 -234q0 -28 -1 -86q-95 -4 -175 -4q-82 0 -205 4q-8 0 -14 6t-6 14q-8 376 -8 580z" />
<glyph unicode="L" horiz-adv-x="820" d="M92 600q0 280 8 600q95 4 175 4q82 0 205 -4q8 0 14 -6t6 -14q8 -376 8 -580q0 -134 -2 -260h9q182 0 305 -4q8 0 14 -6t6 -14q2 -122 2 -173q0 -78 -2 -147q-95 -4 -295 -4q-50 0 -211 3t-214 5q-8 0 -14 6t-6 14q-8 376 -8 580z" />
<glyph unicode="M" horiz-adv-x="1392" d="M92 600q0 280 8 600q95 4 165 4q84 0 173 -4q14 0 22 -20l251 -512l251 512q14 18 24 20q62 4 141 4q84 0 185 -4q8 0 14 -6t6 -14q8 -376 8 -580q0 -280 -8 -600q-86 -4 -155 -4q-62 0 -185 4q-8 0 -14 6t-6 14q-2 56 -5 168t-5 203t-2 175l-228 -466l-22 -4l-20 4 l-217 443l7 -543q-95 -4 -165 -4q-72 0 -195 4q-8 0 -14 6t-6 14q-8 376 -8 580z" />
<glyph unicode="N" horiz-adv-x="1100" d="M92 600q0 280 8 600q95 4 165 4q60 0 173 -4q14 0 22 -20l207 -512l-7 532q96 4 175 4q78 0 185 -4q8 0 14 -6t6 -14q8 -376 8 -580q0 -280 -8 -600q-83 -4 -155 -4q-86 0 -183 4q-15 0 -22 20l-207 512l7 -532q-95 -4 -165 -4q-79 0 -195 4q-8 0 -14 6t-6 14 q-8 376 -8 580z" />
<glyph unicode="O" d="M52 600q0 146 31.5 260t91 190t143.5 117t190 47q98 0 174 -13t140 -43t109 -77.5t76 -115.5t46 -158.5t15 -206.5q0 -146 -32 -259t-92 -189t-145 -117t-191 -47q-97 0 -173.5 13t-139.5 43t-108 77t-75.5 115t-45 158t-14.5 206zM470 600q0 -70 5 -119t12 -77 t19.5 -43.5t25 -20t30.5 -4.5t30 4.5t24 20t19 43.5t11 77t4 119q0 58 -3 102t-9.5 72.5t-14 47t-19.5 27.5t-22.5 12t-25.5 3t-25.5 -3t-20.5 -12t-17 -27.5t-12.5 -47t-8 -72.5t-2.5 -102z" />
<glyph unicode="P" horiz-adv-x="1032" d="M96 600q0 100 2 291t2 289q222 34 390 34q80 0 137 -3.5t118 -15t101 -32.5t78 -56t60 -84.5t35 -120t13 -162.5q0 -63 -7.5 -115.5t-21.5 -95.5t-35.5 -77.5t-48.5 -61t-62 -45.5t-73 -32.5t-85 -21.5t-96 -11.5t-107 -3.5q4 -230 4 -276q-94 -4 -176 -4q-67 0 -204 4 q-8 0 -14 6t-6 14q0 92 -2 285t-2 295zM492 604h32q18 0 31 2t27.5 10t23 21.5t14.5 38t6 58.5t-1 54t-4.5 37t-9 25t-16.5 14t-23 8q-12 1 -34 1h-46v-269z" />
<glyph unicode="Q" horiz-adv-x="1064" d="M52 620q0 277 117 430.5t331 163.5q112 0 198 -19t154 -62t111 -112t66 -169t23 -232q0 -287 -117 -433.5t-332 -158.5q-1 -2 -1 -4q0 -17 33.5 -29.5t88.5 -12.5q18 0 46 2l176 16l40 -308q-142 -26 -274 -26q-103 0 -194.5 38.5t-146.5 102t-55 133.5q0 62 44 116 q-105 30 -171.5 95t-101.5 181t-35 288zM470 620q0 -44 1 -78.5t4.5 -60t7 -43.5t9.5 -29.5t11.5 -18t15 -9.5t16.5 -4t19 -1q14 0 22 1t17.5 6t15 14.5t11 27t8 43.5t4.5 64t2 88q0 64 -4 109t-10.5 71t-18 40.5t-23.5 19t-30 4.5q-22 0 -35 -7.5t-24 -32.5t-15 -74 t-4 -130z" />
<glyph unicode="R" horiz-adv-x="1052" d="M96 626q0 100 2 277t2 277q100 16 213 25t197 9q73 0 122.5 -2t106.5 -10t94 -22.5t74 -40t58 -62t34 -89.5q13 -54 13 -122q0 -108 -56 -190.5t-156 -129.5q68 -24 110 -96q100 -196 160 -450q-92 -11 -210 -11q-84 0 -160 5q-10 0 -19 6t-12 14q-97 296 -151 478h-27 q1 -56 5 -229.5t4 -262.5q-82 -4 -176 -4q-84 0 -204 4q-8 0 -14 6t-6 14q0 92 -2 298t-2 308zM490 738h34q48 0 77 24t29 62q0 49 -20 73t-71 24q-26 1 -48 -1q-1 -118 -1 -182z" />
<glyph unicode="S" horiz-adv-x="984" d="M68 12l49 362q221 -70 355 -70q52 0 79 22t27 48q0 10 -4 18.5t-14 16t-19.5 12.5t-28 11t-31.5 10t-37 11q-44 12 -69 20t-70 26.5t-72 37.5t-62 51t-54 69.5t-33 91t-14 117.5q0 68 12.5 121.5t33 90t55.5 62t70.5 40t89 22.5t100 10t113.5 2q164 0 386 -44l-45 -332 q-76 34 -174.5 57.5t-186.5 23.5q-46 0 -73 -14.5t-27 -42.5q0 -8 4 -15.5t15 -14.5t21 -12.5t30 -12.5t34 -11t40 -12q123 -36 185 -66q164 -78 209 -216q18 -56 18 -120q0 -67 -13 -121.5t-36.5 -95t-58.5 -71t-75.5 -50.5t-91.5 -32t-103 -17t-112 -5q-210 0 -422 22z " />
<glyph unicode="T" horiz-adv-x="920" d="M30 1048q0 80 2 152q96 4 463 4q290 0 413 -4q8 0 14 -6t6 -14q2 -113 2 -170q0 -82 -2 -150q-32 -2 -242 -4q2 -108 2 -256q0 -280 -8 -600q-95 -4 -175 -4q-82 0 -205 4q-8 0 -14 6t-6 14q-8 376 -8 580q0 92 2 258q-115 2 -222 6q-8 0 -14 6t-6 14q-2 115 -2 164z" />
<glyph unicode="U" horiz-adv-x="1056" d="M54 592q0 288 8 608q95 4 175 4q82 0 205 -4q8 0 14 -6t6 -14q8 -376 8 -648q0 -66 4 -107t15.5 -62t25 -28t35.5 -7q30 0 45 13.5t23 58t8 132.5q0 348 8 668q96 4 175 4q82 0 205 -4q8 0 14 -6t6 -14q8 -376 8 -588q0 -128 -19.5 -228t-56 -170t-91.5 -117t-124 -70 t-155 -27q-70 0 -127 6t-110 19t-93 36t-75.5 57t-60 80t-42.5 106.5t-26 137t-8 170.5z" />
<glyph unicode="V" horiz-adv-x="1010" d="M12 1200q94 4 182 4q128 0 196 -4q8 0 15 -6t9 -14q23 -116 46.5 -265t34.5 -224.5t37 -267.5q2 16 11.5 84.5t12.5 90t11.5 83t13 89.5t12.5 83t14 90t14 82.5t16 90.5q9 42 17 84q96 4 155 4q91 0 213 -4q8 0 12 -5t4 -11q0 -8 -10 -64q-76 -467 -226 -1120 q-95 -4 -255 -4q-137 0 -275 4q-8 0 -15 6t-9 14q-80 353 -138 634.5t-98 545.5z" />
<glyph unicode="W" horiz-adv-x="1364" d="M12 1200q94 4 182 4q128 0 196 -4q8 0 15 -6t9 -14q37 -188 77 -504q76 314 127 462l94 4l92 -4q52 -146 126 -454q46 344 74 516q96 4 159 4q91 0 213 -4q8 0 12 -5t4 -12q0 -2 -9 -63q-79 -552 -227 -1120q-128 -6 -294 -6q-20 72 -74 235t-78 251 q-24 -82 -79.5 -243.5t-78.5 -242.5q-116 0 -280 6q-8 0 -15 6t-9 14q-162 639 -236 1180z" />
<glyph unicode="X" horiz-adv-x="1060" d="M38 0q11 52 19 88t25.5 102t33.5 115t41 110.5t50.5 105t60 80.5t70.5 55v3q-44 14 -93 79.5t-89 151.5t-70 168t-44 141q92 11 200 11q85 0 160 -5q10 0 19 -5.5t11 -14.5q24 -72 69 -197.5t49 -135.5q12 32 36 98.5t45 124t38 110.5q3 8 12 13.5t19 6.5q76 5 160 5 q108 0 200 -11q-11 -47 -31.5 -109t-51.5 -134t-64 -134t-73 -107.5t-78 -55.5v-3q28 -17 53.5 -42.5t46 -52.5t40.5 -64.5t35 -69.5t30 -76.5t25 -75.5t22.5 -77t19 -72t16.5 -68t14 -58q-92 -11 -210 -11q-84 0 -160 5q-10 0 -19 6t-12 14q-43 132 -113 406 q-72 -281 -112 -406q-3 -8 -11.5 -14t-18.5 -6q-76 -5 -160 -5q-118 0 -210 11z" />
<glyph unicode="Y" horiz-adv-x="1050" d="M16 1193q92 11 210 11q85 0 160 -5q10 0 19 -5.5t11 -14.5q48 -146 128 -436q78 280 129 436q3 8 12 13.5t19 6.5q76 5 160 5q118 0 210 -11q-80 -336 -168 -510q-62 -107 -161 -189q4 -330 5 -494q-95 -4 -179 -4q-86 0 -209 4q-8 0 -14 6t-6 14q0 150 3 474 q-101 83 -163 189q-86 172 -166 510z" />
<glyph unicode="Z" horiz-adv-x="888" d="M58 142q0 54 2 114q46 92 98.5 183t139 233t112.5 185q-231 4 -330 7q-8 0 -14 6t-6 14q-2 115 -2 164q0 80 2 152q95 4 435 4q226 0 349 -4q8 0 14 -6t6 -14v-200q-194 -382 -354 -640q242 -2 338 -4q8 0 14 -6t6 -14q2 -120 2 -172q0 -80 -2 -148q-95 -4 -343 -4 q-50 0 -221.5 3t-223.5 5q-8 0 -14 6t-6 14q-2 64 -2 122z" />
<glyph unicode="[" horiz-adv-x="680" d="M92 600q0 432 6 778q1 29 2 62q95 4 291 4q150 0 273 -4q8 0 14 -6t6 -14q2 -74 2 -160q0 -80 -2 -136q-38 -2 -212 -4q4 -310 4 -520q0 -253 -3 -524q78 0 191 -4q8 0 14 -6t6 -14q2 -56 2 -138q0 -90 -2 -158q-98 -4 -323 -4q-72 0 -241 8q-8 0 -14 6t-6 14 q-8 376 -8 820z" />
<glyph unicode="\" horiz-adv-x="748" d="M-10 1286q0 12 14 14q117 4 195 4q81 0 177 -4q103 -265 228 -694q106 -364 178 -637q14 -51 14 -55q0 -12 -14 -14q-114 -4 -189 -4q-81 0 -177 4q-105 270 -232 692q-69 228 -183 650q-11 38 -11 44z" />
<glyph unicode="]" horiz-adv-x="680" d="M34 1296q0 66 2 144q96 4 303 4q138 0 261 -4q8 0 14 -6t6 -14q8 -376 8 -820q0 -524 -8 -844q-98 -4 -311 -4q-80 0 -253 8q-8 0 -14 6t-6 14v292l212 3q-4 312 -4 525q0 251 3 521q-38 1 -106 4t-85 3q-8 0 -14 6t-6 14q-2 112 -2 148z" />
<glyph unicode="^" horiz-adv-x="908" d="M56 770q34 66 117 188t154 218q17 22 31 22q94 4 142 4q50 0 96 -2q57 -64 160.5 -194t160.5 -210q6 -8 4.5 -14t-9.5 -6q-104 -4 -162 -4q-68 0 -142 4q-62 84 -124 204q-43 -92 -98 -190q-4 -8 -13 -14t-17 -6q-108 -4 -163 -4q-67 0 -137 4z" />
<glyph unicode="_" horiz-adv-x="796" d="M38 -166q0 59 2 146q95 4 443 4q170 0 293 -4q8 0 14 -6t6 -14q2 -62 2 -170q0 -39 -2 -126q-98 -4 -343 -4q-48 0 -192.5 3t-200.5 5q-8 0 -14 6t-6 14q-2 104 -2 146z" />
<glyph unicode="`" horiz-adv-x="600" d="M68 1290q70 4 146 4q66 0 174 -4q8 0 17 -6t13 -14q18 -34 49 -92t56 -105t49 -93q-168 0 -322 8q-8 0 -17 6t-14 14q-109 197 -151 282z" />
<glyph unicode="a" horiz-adv-x="1040" d="M20 16q0 8 9 63q26 164 60.5 340.5t88.5 437.5t70 343q100 4 275 4q163 0 285 -4q8 0 15 -6t9 -14q22 -112 74.5 -365t90 -447t63.5 -368q-94 -4 -174 -4q-128 0 -196 4q-8 0 -15 6t-9 14q-22 115 -36 200h-186q-16 -107 -38 -220q-96 -4 -166 -4q-83 0 -204 4 q-8 0 -12 4.5t-4 11.5zM478 480h112q-12 82 -32 234t-30 214q-10 -82 -26 -234t-24 -214z" />
<glyph unicode="b" horiz-adv-x="1032" d="M96 626q0 100 2 277t2 277q222 34 390 34q68 0 115 -2t101.5 -10t90.5 -22.5t72 -40t56.5 -62t33.5 -89.5q13 -54 13 -122q0 -158 -116 -258q84 -46 130 -110t46 -136q0 -67 -13 -120.5t-36 -92t-58 -67t-74 -46t-91 -28t-102 -14.5t-112 -4q-214 0 -426 22q-8 2 -14 9 t-6 15q0 92 -2 290t-2 300zM488 762h16q49 0 81.5 22t32.5 62q0 38 -30.5 59.5t-72.5 21.5q-17 0 -25 -1q0 -22 -1 -76t-1 -88zM490 465q0 -53 4 -161h34q55 0 79.5 20t24.5 60q0 36 -26 58q-24 23 -64 23h-52z" />
<glyph unicode="c" horiz-adv-x="830" d="M52 600q0 139 25 244.5t71 175.5t115 113.5t151.5 62t187.5 18.5q56 0 106 -8t122 -26l-43 -314l-185 13q-24 2 -42 -3.5t-35.5 -23.5t-29 -49t-18.5 -82t-7 -121t6 -120.5t17 -82t28 -48.5t36 -23t45 -4l185 12l41 -316q-120 -22 -230 -22q-58 0 -107 4t-97 14.5t-87 27 t-75 42t-63 59t-50 78.5t-37 101t-22 126t-8 152z" />
<glyph unicode="d" horiz-adv-x="1052" d="M96 600q0 100 2 290t2 290q222 34 390 34q105 0 187.5 -18.5t151.5 -62t115 -113.5t71 -175t25 -245q0 -82 -8 -152t-22 -126t-37 -101t-50 -78.5t-63 -59t-75 -42t-87 -27t-97 -14.5t-107 -4q-20 0 -43 1t-41 1t-48 2t-43 3t-50 4t-46 4t-53 5t-50 4q-8 0 -14 6t-6 14 q0 92 -2 275t-2 285zM492 600q0 -119 4 -264h34q15 0 25.5 3t22 12t19 27.5t13.5 47t9 72.5t3 102q0 70 -5 119t-12 77t-20 44t-25 20.5t-30 4.5h-34q-4 -166 -4 -265z" />
<glyph unicode="e" horiz-adv-x="908" d="M92 600q0 280 8 600q95 4 415 4q226 0 349 -4q8 0 14 -6t6 -14q2 -122 2 -173q0 -78 -2 -147q-84 -4 -318 -4h-76q-2 -68 -2 -104q179 -1 240 -4q8 0 14 -6t6 -14q2 -82 2 -150q0 -62 -2 -134h-260q0 -35 2 -104h24q245 0 354 -4q8 0 14 -6t6 -14q2 -122 2 -173 q0 -78 -2 -147q-95 -4 -343 -4q-50 0 -211 3t-214 5q-8 0 -14 6t-6 14q-8 376 -8 580z" />
<glyph unicode="f" horiz-adv-x="840" d="M92 600q0 280 8 600q95 4 415 4q198 0 321 -4q8 0 14 -6t6 -14q2 -122 2 -173q0 -78 -2 -147q-96 -4 -291 -4h-67q0 -26 -1 -83t-1 -89q164 -2 224 -4q8 0 14 -6t6 -14q2 -122 2 -173q0 -78 -2 -147q-72 -4 -242 -4q2 -280 2 -336q-95 -4 -175 -4q-82 0 -205 4 q-8 0 -14 6t-6 14q-8 376 -8 580z" />
<glyph unicode="g" horiz-adv-x="1004" d="M52 600q0 139 25 244.5t71 175.5t115 113.5t151.5 62t187.5 18.5q146 0 358 -34l-42 -316h-356q-18 0 -30.5 -4.5t-25 -20t-19.5 -43.5t-12 -77t-5 -119q0 -58 3.5 -102t11 -72t15.5 -47t21 -28t24 -12t27 -3h40q0 98 -8 304q88 4 158 4q74 0 174 -4q8 0 14 -6t6 -14 q8 -185 8 -280q0 -164 -8 -306q-85 -15 -126 -21.5t-102 -11.5t-130 -5q-58 0 -107 4t-97 14.5t-87 27t-75 42t-63 59t-50 78.5t-37 101t-22 126t-8 152z" />
<glyph unicode="h" horiz-adv-x="1100" d="M92 600q0 280 8 600q95 4 175 4q82 0 205 -4q8 0 14 -6t6 -14q4 -184 4 -420h132q0 272 4 440q95 4 175 4q82 0 205 -4q8 0 14 -6t6 -14q8 -376 8 -580q0 -280 -8 -600q-95 -4 -175 -4q-82 0 -205 4q-8 0 -14 6t-6 14q-3 132 -4 400h-132q0 -260 -4 -420q-95 -4 -175 -4 q-82 0 -205 4q-8 0 -14 6t-6 14q-8 376 -8 580z" />
<glyph unicode="i" horiz-adv-x="560" d="M92 600q0 280 8 600q95 4 175 4q82 0 205 -4q8 0 14 -6t6 -14q8 -376 8 -580q0 -280 -8 -600q-95 -4 -175 -4q-82 0 -205 4q-8 0 -14 6t-6 14q-8 376 -8 580z" />
<glyph unicode="j" horiz-adv-x="868" d="M64 -8l15 328l199 -16q27 -2 45 0t36.5 14t29 35t17 63t6.5 98q0 180 2 342q-153 3 -304 8q-8 0 -14 6t-6 14q-2 115 -2 164q0 80 2 152q95 4 439 4q148 0 271 -4q8 0 14 -6t6 -14q8 -376 8 -656q0 -98 -13 -176t-37 -136t-61 -101t-81 -70.5t-102 -44t-119 -23.5 t-137 -7q-15 0 -30 0.5t-26 1t-27 2.5t-23.5 3t-26 4t-24.5 4t-28.5 5.5t-28.5 5.5z" />
<glyph unicode="k" horiz-adv-x="1066" d="M92 600q0 280 8 600q95 4 175 4q82 0 205 -4q8 0 14 -6t6 -14v-70q0 -50 -7 -330h22h22q18 56 66.5 195t71.5 210q3 8 12 13.5t19 6.5q76 5 160 5q108 0 200 -11q-62 -262 -170 -474q-60 -100 -156 -106v-3q51 -3 92.5 -30.5t69.5 -75.5q88 -174 168 -510 q-92 -11 -210 -11q-84 0 -160 5q-10 0 -19 6t-12 14q-49 150 -139 476h-38q0 -16 4.5 -170t4.5 -234q0 -28 -1 -86q-95 -4 -175 -4q-82 0 -205 4q-8 0 -14 6t-6 14q-8 376 -8 580z" />
<glyph unicode="l" horiz-adv-x="820" d="M92 600q0 280 8 600q95 4 175 4q82 0 205 -4q8 0 14 -6t6 -14q8 -376 8 -580q0 -134 -2 -260h9q182 0 305 -4q8 0 14 -6t6 -14q2 -122 2 -173q0 -78 -2 -147q-95 -4 -295 -4q-50 0 -211 3t-214 5q-8 0 -14 6t-6 14q-8 376 -8 580z" />
<glyph unicode="m" horiz-adv-x="1392" d="M92 600q0 280 8 600q95 4 165 4q84 0 173 -4q14 0 22 -20l251 -512l251 512q14 18 24 20q62 4 141 4q84 0 185 -4q8 0 14 -6t6 -14q8 -376 8 -580q0 -280 -8 -600q-86 -4 -155 -4q-62 0 -185 4q-8 0 -14 6t-6 14q-2 56 -5 168t-5 203t-2 175l-228 -466l-22 -4l-20 4 l-217 443l7 -543q-95 -4 -165 -4q-72 0 -195 4q-8 0 -14 6t-6 14q-8 376 -8 580z" />
<glyph unicode="n" horiz-adv-x="1100" d="M92 600q0 280 8 600q95 4 165 4q60 0 173 -4q14 0 22 -20l207 -512l-7 532q96 4 175 4q78 0 185 -4q8 0 14 -6t6 -14q8 -376 8 -580q0 -280 -8 -600q-83 -4 -155 -4q-86 0 -183 4q-15 0 -22 20l-207 512l7 -532q-95 -4 -165 -4q-79 0 -195 4q-8 0 -14 6t-6 14 q-8 376 -8 580z" />
<glyph unicode="o" d="M52 600q0 146 31.5 260t91 190t143.5 117t190 47q98 0 174 -13t140 -43t109 -77.5t76 -115.5t46 -158.5t15 -206.5q0 -146 -32 -259t-92 -189t-145 -117t-191 -47q-97 0 -173.5 13t-139.5 43t-108 77t-75.5 115t-45 158t-14.5 206zM470 600q0 -70 5 -119t12 -77 t19.5 -43.5t25 -20t30.5 -4.5t30 4.5t24 20t19 43.5t11 77t4 119q0 58 -3 102t-9.5 72.5t-14 47t-19.5 27.5t-22.5 12t-25.5 3t-25.5 -3t-20.5 -12t-17 -27.5t-12.5 -47t-8 -72.5t-2.5 -102z" />
<glyph unicode="p" horiz-adv-x="1032" d="M96 600q0 100 2 291t2 289q222 34 390 34q80 0 137 -3.5t118 -15t101 -32.5t78 -56t60 -84.5t35 -120t13 -162.5q0 -63 -7.5 -115.5t-21.5 -95.5t-35.5 -77.5t-48.5 -61t-62 -45.5t-73 -32.5t-85 -21.5t-96 -11.5t-107 -3.5q4 -230 4 -276q-94 -4 -176 -4q-67 0 -204 4 q-8 0 -14 6t-6 14q0 92 -2 285t-2 295zM492 604h32q18 0 31 2t27.5 10t23 21.5t14.5 38t6 58.5t-1 54t-4.5 37t-9 25t-16.5 14t-23 8q-12 1 -34 1h-46v-269z" />
<glyph unicode="q" horiz-adv-x="1064" d="M52 620q0 277 117 430.5t331 163.5q112 0 198 -19t154 -62t111 -112t66 -169t23 -232q0 -287 -117 -433.5t-332 -158.5q-1 -2 -1 -4q0 -17 33.5 -29.5t88.5 -12.5q18 0 46 2l176 16l40 -308q-142 -26 -274 -26q-103 0 -194.5 38.5t-146.5 102t-55 133.5q0 62 44 116 q-105 30 -171.5 95t-101.5 181t-35 288zM470 620q0 -44 1 -78.5t4.5 -60t7 -43.5t9.5 -29.5t11.5 -18t15 -9.5t16.5 -4t19 -1q14 0 22 1t17.5 6t15 14.5t11 27t8 43.5t4.5 64t2 88q0 64 -4 109t-10.5 71t-18 40.5t-23.5 19t-30 4.5q-22 0 -35 -7.5t-24 -32.5t-15 -74 t-4 -130z" />
<glyph unicode="r" horiz-adv-x="1052" d="M96 626q0 100 2 277t2 277q100 16 213 25t197 9q73 0 122.5 -2t106.5 -10t94 -22.5t74 -40t58 -62t34 -89.5q13 -54 13 -122q0 -108 -56 -190.5t-156 -129.5q68 -24 110 -96q100 -196 160 -450q-92 -11 -210 -11q-84 0 -160 5q-10 0 -19 6t-12 14q-97 296 -151 478h-27 q1 -56 5 -229.5t4 -262.5q-82 -4 -176 -4q-84 0 -204 4q-8 0 -14 6t-6 14q0 92 -2 298t-2 308zM490 738h34q48 0 77 24t29 62q0 49 -20 73t-71 24q-26 1 -48 -1q-1 -118 -1 -182z" />
<glyph unicode="s" horiz-adv-x="984" d="M68 12l49 362q221 -70 355 -70q52 0 79 22t27 48q0 10 -4 18.5t-14 16t-19.5 12.5t-28 11t-31.5 10t-37 11q-44 12 -69 20t-70 26.5t-72 37.5t-62 51t-54 69.5t-33 91t-14 117.5q0 68 12.5 121.5t33 90t55.5 62t70.5 40t89 22.5t100 10t113.5 2q164 0 386 -44l-45 -332 q-76 34 -174.5 57.5t-186.5 23.5q-46 0 -73 -14.5t-27 -42.5q0 -8 4 -15.5t15 -14.5t21 -12.5t30 -12.5t34 -11t40 -12q123 -36 185 -66q164 -78 209 -216q18 -56 18 -120q0 -67 -13 -121.5t-36.5 -95t-58.5 -71t-75.5 -50.5t-91.5 -32t-103 -17t-112 -5q-210 0 -422 22z " />
<glyph unicode="t" horiz-adv-x="920" d="M30 1048q0 80 2 152q96 4 463 4q290 0 413 -4q8 0 14 -6t6 -14q2 -113 2 -170q0 -82 -2 -150q-32 -2 -242 -4q2 -108 2 -256q0 -280 -8 -600q-95 -4 -175 -4q-82 0 -205 4q-8 0 -14 6t-6 14q-8 376 -8 580q0 92 2 258q-115 2 -222 6q-8 0 -14 6t-6 14q-2 115 -2 164z" />
<glyph unicode="u" horiz-adv-x="1056" d="M54 592q0 288 8 608q95 4 175 4q82 0 205 -4q8 0 14 -6t6 -14q8 -376 8 -648q0 -66 4 -107t15.5 -62t25 -28t35.5 -7q30 0 45 13.5t23 58t8 132.5q0 348 8 668q96 4 175 4q82 0 205 -4q8 0 14 -6t6 -14q8 -376 8 -588q0 -128 -19.5 -228t-56 -170t-91.5 -117t-124 -70 t-155 -27q-70 0 -127 6t-110 19t-93 36t-75.5 57t-60 80t-42.5 106.5t-26 137t-8 170.5z" />
<glyph unicode="v" horiz-adv-x="1010" d="M12 1200q94 4 182 4q128 0 196 -4q8 0 15 -6t9 -14q23 -116 46.5 -265t34.5 -224.5t37 -267.5q2 16 11.5 84.5t12.5 90t11.5 83t13 89.5t12.5 83t14 90t14 82.5t16 90.5q9 42 17 84q96 4 155 4q91 0 213 -4q8 0 12 -5t4 -11q0 -8 -10 -64q-76 -467 -226 -1120 q-95 -4 -255 -4q-137 0 -275 4q-8 0 -15 6t-9 14q-80 353 -138 634.5t-98 545.5z" />
<glyph unicode="w" horiz-adv-x="1364" d="M12 1200q94 4 182 4q128 0 196 -4q8 0 15 -6t9 -14q37 -188 77 -504q76 314 127 462l94 4l92 -4q52 -146 126 -454q46 344 74 516q96 4 159 4q91 0 213 -4q8 0 12 -5t4 -12q0 -2 -9 -63q-79 -552 -227 -1120q-128 -6 -294 -6q-20 72 -74 235t-78 251 q-24 -82 -79.5 -243.5t-78.5 -242.5q-116 0 -280 6q-8 0 -15 6t-9 14q-162 639 -236 1180z" />
<glyph unicode="x" horiz-adv-x="1060" d="M38 0q11 52 19 88t25.5 102t33.5 115t41 110.5t50.5 105t60 80.5t70.5 55v3q-44 14 -93 79.5t-89 151.5t-70 168t-44 141q92 11 200 11q85 0 160 -5q10 0 19 -5.5t11 -14.5q24 -72 69 -197.5t49 -135.5q12 32 36 98.5t45 124t38 110.5q3 8 12 13.5t19 6.5q76 5 160 5 q108 0 200 -11q-11 -47 -31.5 -109t-51.5 -134t-64 -134t-73 -107.5t-78 -55.5v-3q28 -17 53.5 -42.5t46 -52.5t40.5 -64.5t35 -69.5t30 -76.5t25 -75.5t22.5 -77t19 -72t16.5 -68t14 -58q-92 -11 -210 -11q-84 0 -160 5q-10 0 -19 6t-12 14q-43 132 -113 406 q-72 -281 -112 -406q-3 -8 -11.5 -14t-18.5 -6q-76 -5 -160 -5q-118 0 -210 11z" />
<glyph unicode="y" horiz-adv-x="1050" d="M16 1193q92 11 210 11q85 0 160 -5q10 0 19 -5.5t11 -14.5q48 -146 128 -436q78 280 129 436q3 8 12 13.5t19 6.5q76 5 160 5q118 0 210 -11q-80 -336 -168 -510q-62 -107 -161 -189q4 -330 5 -494q-95 -4 -179 -4q-86 0 -209 4q-8 0 -14 6t-6 14q0 150 3 474 q-101 83 -163 189q-86 172 -166 510z" />
<glyph unicode="z" horiz-adv-x="888" d="M58 142q0 54 2 114q46 92 98.5 183t139 233t112.5 185q-231 4 -330 7q-8 0 -14 6t-6 14q-2 115 -2 164q0 80 2 152q95 4 435 4q226 0 349 -4q8 0 14 -6t6 -14v-200q-194 -382 -354 -640q242 -2 338 -4q8 0 14 -6t6 -14q2 -120 2 -172q0 -80 -2 -148q-95 -4 -343 -4 q-50 0 -221.5 3t-223.5 5q-8 0 -14 6t-6 14q-2 64 -2 122z" />
<glyph unicode="{" horiz-adv-x="692" d="M60 600q0 25 6 28q38 16 60 46t22 71q0 68 -27 206.5t-27 186.5q0 78 28.5 137.5t80 96t119.5 54.5t152 18q116 0 244 -32l-42 -314l-180 12q-28 2 -44 -10t-16 -30q0 -16 16.5 -79t33 -140t16.5 -127q0 -42 -32 -77.5t-72 -46.5q40 -11 72 -46.5t32 -77.5 q0 -50 -16.5 -127t-33 -140t-16.5 -79q0 -18 16 -30t44 -10l180 12l42 -314q-128 -32 -244 -32q-84 0 -152 18t-119.5 54.5t-80 96t-28.5 137.5q0 48 27 186.5t27 206.5q0 40 -22 70.5t-60 46.5q-6 3 -6 28z" />
<glyph unicode="|" horiz-adv-x="560" d="M92 600q0 520 8 840q95 4 175 4q82 0 205 -4q8 0 14 -6t6 -14q8 -376 8 -820q0 -520 -8 -840q-96 -4 -175 -4q-82 0 -205 4q-8 0 -14 6t-6 14q-8 376 -8 820z" />
<glyph unicode="}" horiz-adv-x="692" d="M14 -212l42 314l180 -12q28 -2 44 10t16 30q0 16 -16.5 79t-33 140t-16.5 127q0 42 32 77.5t72 46.5q-40 11 -72 46.5t-32 77.5q0 50 16.5 127t33 140t16.5 79q0 18 -16 30t-44 10l-180 -12l-42 314q128 32 244 32q84 0 152 -18t119.5 -54.5t80 -96t28.5 -137.5 q0 -48 -27 -186.5t-27 -206.5q0 -40 22 -70.5t60 -46.5q6 -3 6 -28t-6 -28q-38 -16 -60 -46t-22 -71q0 -68 27 -206.5t27 -186.5q0 -78 -28.5 -137.5t-80 -96t-119.5 -54.5t-152 -18q-116 0 -244 32z" />
<glyph unicode="~" horiz-adv-x="836" d="M28 544q0 4 3 11t7 13t10.5 18t10.5 19q67 121 119 205q101 -52 182 -52q42 0 112 17t114 17q102 0 250 -92q10 -6 10 -18q0 -3 -2 -7.5t-5 -11.5t-7 -13t-9 -15t-9 -16q-60 -109 -118 -203q-102 52 -182 52q-42 0 -113 -16t-117 -16q-106 4 -246 91q-10 5 -10 17z" />
<glyph unicode="&#xa1;" horiz-adv-x="512" d="M88 400q0 196 8 400q96 4 175 4q68 0 165 -4q8 0 14 -6t6 -14q8 -214 8 -380q0 -175 -12 -400q-71 -4 -141 -4q-127 0 -195 4q-8 0 -14 6t-6 14q-8 214 -8 380zM102 1062q0 66 2 138q73 4 148 4q66 0 172 -4q8 0 14 -6t6 -14q2 -82 2 -154q0 -64 -2 -136q-44 -2 -108 -2 q-92 0 -212 6q-8 0 -14 6t-6 14q-2 78 -2 148z" />
<glyph unicode="&#xa2;" horiz-adv-x="800" d="M52 600q0 142 27 243t76 162t123 96q2 204 6 339q96 4 155 4q62 0 185 -4q8 0 14 -6t6 -14q0 -22 4 -268q60 -5 152 -27l-38 -277l-166 10q-77 5 -121.5 -60.5t-44.5 -197.5q0 -78 11 -130t33 -81t51 -39t71 -8l166 11l36 -279q-79 -14 -149 -16q-3 -212 -5 -298 q-95 -4 -155 -4q-62 0 -185 4q-8 0 -14 6t-6 14q-2 90 -5 336q-112 56 -169.5 174t-57.5 310z" />
<glyph unicode="&#xa3;" horiz-adv-x="760" d="M12 178q0 27 6 28q20 4 43 14t46.5 25t39 39t15.5 51q0 46 -10 115q-6 0 -88 2q-8 0 -14 6t-6 14q-2 106 -2 142q0 34 2 130q20 0 52 2q-12 74 -12 122q0 78 19 137.5t54 99t88 64t116 35t143 10.5q116 0 244 -32l-42 -314l-180 12q-42 2 -71 -17t-29 -53q0 -22 8 -62 q117 -1 190 -4q8 0 14 -6t6 -14q2 -82 2 -146q0 -58 -2 -130h-142q12 -60 14 -108q165 -1 240 -4q8 0 14 -6t6 -14q2 -122 2 -173q0 -78 -2 -147q-95 -4 -297 -4q-50 0 -221.5 3t-223.5 5q-8 0 -14 6t-6 14q-2 111 -2 158z" />
<glyph unicode="&#xa4;" horiz-adv-x="1232" d="M68 238q38 42 176 182q-22 72 -22 178q0 92 21 159q-34 35 -93 95q-58 62 -77 82q53 56 97 101q32 32 118 113q6 6 14 6t14 -6q100 -94 214 -204q44 4 98 3q80 1 136 -7q164 162 211 206q6 6 14 6q9 0 15 -6q14 -12 88 -87q84 -83 110 -111q-32 -36 -188 -194 q20 -64 20 -156q0 -90 -14 -152q122 -120 172 -173q-52 -55 -97 -101q-33 -32 -119 -114q-6 -6 -14 -6t-14 6q-106 98 -188 180q-55 -6 -132 -5q-84 -1 -133 5q-148 -146 -204 -196q-6 -6 -14 -6q-9 0 -15 6q-31 28 -84 82q-47 48 -110 114zM532 598q0 -28 4 -47t11.5 -30 t21 -17t26.5 -7.5t35 -1.5q26 0 41 3t29 13t20 31.5t6 55.5q0 33 -6 54t-20 31.5t-30.5 14.5t-41.5 4q-26 0 -42 -4t-29 -14.5t-19 -31.5t-6 -54z" />
<glyph unicode="&#xa5;" horiz-adv-x="1050" d="M16 1193q92 11 210 11q85 0 160 -5q10 0 19 -5.5t11 -14.5q48 -146 128 -436q78 280 129 436q3 8 12 13.5t19 6.5q76 5 160 5q118 0 210 -11q-80 -336 -168 -510q-31 -53 -68 -97q74 2 132 2q8 0 14 -6t6 -14q2 -62 2 -162q0 -35 -2 -118q-22 -1 -242 -3q2 -190 2 -285 q-95 -4 -179 -4q-86 0 -209 4q-8 0 -14 6t-6 14q0 86 1 266q-194 4 -223 6q-8 0 -14 6t-6 14q-2 104 -2 138q0 52 2 138q12 0 65 -1t87 -1q-40 48 -70 97q-86 172 -166 510z" />
<glyph unicode="&#xa6;" horiz-adv-x="560" d="M92 146q0 240 8 386q107 4 175 4q66 0 205 -4q8 0 14 -5t6 -10q8 -173 8 -371q0 -240 -8 -386q-98 -4 -175 -4q-114 0 -205 4q-8 0 -14 5t-6 10q-8 173 -8 371zM92 1054q0 240 8 386q107 4 175 4q66 0 205 -4q8 0 14 -5t6 -10q8 -173 8 -371q0 -240 -8 -386 q-98 -4 -175 -4q-114 0 -205 4q-8 0 -14 5t-6 10q-8 173 -8 371z" />
<glyph unicode="&#xa7;" horiz-adv-x="1064" d="M23 592q1 214 135 310q-48 82 -48 194q0 68 12.5 121.5t33 90t55.5 62t70.5 40t89 22.5t100 10t113.5 2q93 0 178.5 -12.5t187.5 -37.5l-45 -332q-195 88 -341 87q-46 0 -73 -14.5t-27 -42.5q0 -14 17 -26.5t47 -22t69 -22t83.5 -24.5t91.5 -30.5t91.5 -39.5t83.5 -52 t69 -68t47 -88t17 -111q0 -214 -134 -309q48 -83 47 -195q0 -68 -12.5 -121t-32.5 -90t-56 -62t-71 -40t-89 -22.5t-100 -10t-113 -2.5q-93 0 -179 13t-187 37l45 333q194 -87 340 -87q46 0 73.5 14.5t27.5 41.5q0 14 -17.5 27t-46.5 22.5t-69 22t-84 24.5t-91 30t-91 39 t-84 52t-69 68t-46.5 88t-17.5 111zM413 600q0 -20 23.5 -39.5t60.5 -31t75 -11.5q56 0 87 25t31 57q0 20 -24 40t-60 32q-36 11 -74 11q-56 0 -87.5 -25t-31.5 -58z" />
<glyph unicode="&#xa8;" horiz-adv-x="880" d="M82 1136q0 56 2 128q60 3 136 3q74 0 152 -3q8 0 14 -6t6 -14q2 -81 2 -144q0 -56 -2 -128q-60 -2 -102 -2q-70 0 -186 6q-8 0 -14 6t-6 14q-2 79 -2 140zM526 1136q0 56 2 128q60 3 132 3q78 0 156 -3q8 0 14 -6t6 -14q2 -81 2 -144q0 -56 -2 -128q-60 -2 -102 -2 q-70 0 -186 6q-8 0 -14 6t-6 14q-2 80 -2 140z" />
<glyph unicode="&#xa9;" horiz-adv-x="1380" d="M60 600q0 132 51.5 252.5t138.5 207.5t207.5 138.5t252.5 51.5t252.5 -51.5t207.5 -138.5t138.5 -207.5t51.5 -252.5t-51.5 -252.5t-138.5 -207.5t-207.5 -138.5t-252.5 -51.5t-252.5 51.5t-207.5 138.5t-138.5 207.5t-51.5 252.5zM160 600q0 -112 43 -214t117 -175.5 t176 -117t214 -43.5t214 43.5t176 117t117 175.5t43 214t-43 214t-117 175.5t-176 117t-214 43.5t-214 -43.5t-176 -117t-117 -175.5t-43 -214zM382 602q0 90 18.5 161t52.5 118.5t84.5 78.5t112 44.5t137.5 13.5q30 0 62 -4t53 -8q20 -4 59 -14l-33 -242l-142 9 q-18 1 -32 -5t-27 -22t-19.5 -49t-6.5 -81q0 -74 21 -117q20 -43 64 -41l142 10l32 -244q-99 -18 -176 -18q-78 0 -137 11t-110 39t-84 74t-52 118t-19 168z" />
<glyph unicode="&#xaa;" horiz-adv-x="820" d="M44 830q0 66 10 118t28 91t47 68t63 48t80 30t95 16t109 5q40 0 79 -2t91 -6t76 -6q28 -2 49 -22q21 -18 21 -46q4 -104 4 -180q0 -81 -2 -235.5t-2 -234.5q-181 -28 -316 -28q-65 0 -110.5 3t-94.5 12t-81 26t-62 45t-47 69t-27 98t-10 131zM373 834q0 -27 0.5 -43.5 t3.5 -30.5t7.5 -21t13 -12t19.5 -6.5t28 -1.5h33v225h-22q-18 0 -31.5 -4t-26 -15t-19 -34t-6.5 -57z" />
<glyph unicode="&#xab;" horiz-adv-x="940" d="M60 608v145q104 93 326 259q44 34 50 34q8 0 8 -10q4 -88 4 -169q0 -79 -4 -143q-83 -60 -217 -122q113 -50 203 -100q8 -4 14 -13t6 -17q4 -92 4 -155q0 -76 -4 -137q-66 34 -169 103.5t-193 135.5q-22 17 -22 29q-6 72 -6 160zM520 608v145q104 93 326 259q44 34 50 34 q8 0 8 -10q4 -88 4 -169q0 -79 -4 -143q-83 -60 -217 -122q113 -50 203 -100q8 -4 14 -13t6 -17q4 -92 4 -155q0 -76 -4 -137q-66 34 -169 103.5t-193 135.5q-22 17 -22 29q-6 70 -6 160z" />
<glyph unicode="&#xad;" horiz-adv-x="836" d="M58 602q0 59 2 146q96 4 443 4q170 0 293 -4q8 0 14 -6t6 -14q2 -62 2 -170q0 -39 -2 -126q-98 -4 -343 -4q-48 0 -192.5 3t-200.5 5q-8 0 -14 6t-6 14q-2 104 -2 146z" />
<glyph unicode="&#xae;" horiz-adv-x="1380" d="M60 600q0 132 51.5 252.5t138.5 207.5t207.5 138.5t252.5 51.5t252.5 -51.5t207.5 -138.5t138.5 -207.5t51.5 -252.5t-51.5 -252.5t-138.5 -207.5t-207.5 -138.5t-252.5 -51.5t-252.5 51.5t-207.5 138.5t-138.5 207.5t-51.5 252.5zM160 600q0 -112 43 -214t117 -175.5 t176 -117t214 -43.5t214 43.5t176 117t117 175.5t43 214t-43 214t-117 175.5t-176 117t-214 43.5t-214 -43.5t-176 -117t-117 -175.5t-43 -214zM400 625q0 64 1 177.5t1 177.5v14l14 2q140 22 264 22q44 0 78 -2t70.5 -8t63 -16.5t51.5 -28.5t41 -42.5t25 -60.5t9 -81 q0 -66 -31 -118.5t-86 -86.5q30 -20 50 -54h1q63 -124 102 -292l4 -18l-18 -2q-62 -6 -136 -6q-52 0 -103 2q-10 0 -20 6t-14 18q-55 174 -81 256q4 -174 4 -260v-15l-15 -1q-62 -2 -113 -2q-60 0 -131 2q-12 0 -20.5 9t-8.5 21q0 59 -1 190.5t-1 196.5zM684 709h6 q26 0 43 13.5t17 29.5q0 52 -51 52h-7.5h-7.5v-47.5v-47.5z" />
<glyph unicode="&#xaf;" horiz-adv-x="720" d="M78 1132q0 58 2 130q96 4 355 4q102 0 225 -4q8 0 14 -6t6 -14q1 -46 1 -132q0 -98 -1 -132q-98 -4 -275 -4q-74 0 -305 8q-8 0 -14 6t-6 14q-2 70 -2 130z" />
<glyph unicode="&#xb0;" horiz-adv-x="544" d="M42 982q0 100 61 160t164 65q149 0 212 -53.5t63 -171.5q0 -100 -59 -159t-162 -64q-150 0 -214.5 53t-64.5 170zM244 982q0 -32 11 -43t37 -11t37 11t11 43t-12.5 43t-40.5 11q-22 0 -32.5 -11t-10.5 -43z" />
<glyph unicode="&#xb1;" horiz-adv-x="914" d="M63 753q1 33 3 147q42 2 256 2q2 86 6 282q62 2 130 2q52 0 152 -2q8 0 13 -6q5 -4 5 -12q0 -34 2.5 -122t3.5 -141q167 -1 238 -3q8 0 13 -6q5 -4 5 -12q2 -24 2 -116q0 -84 -2 -144q-36 -2 -256 -4q0 -70 -6 -262q-62 -4 -130 -4q-52 0 -152 4q-8 0 -13 5t-5 13 q-2 57 -6 246q-140 2 -238 5q-8 0 -13 5.5t-5 12.5q-2 56 -3 110zM89 174q0 56 2 134q103 4 435 5q180 -1 318 -5q8 0 12 -5q6 -5 6 -13q2 -42 1 -156q1 -58 -1 -118q-78 -4 -363 -4q-43 0 -192 3t-198 5q-8 0 -13 5t-5 13q-2 93 -2 136z" />
<glyph unicode="&#xb4;" horiz-adv-x="634" d="M66.5 978q-1.5 6 3.5 14q80 134 186 278q74 4 160 4q80 0 184 -4q10 0 10 -8q0 -10 -61 -84q-15 -18 -82 -94t-101 -120q-146 0 -290 8q-8 0 -9.5 6z" />
<glyph unicode="&#xb7;" horiz-adv-x="420" d="M58 612q0 66 2 138q73 4 148 4q66 0 172 -4q8 0 14 -6t6 -14q2 -82 2 -154q0 -64 -2 -136q-44 -2 -108 -2q-92 0 -212 6q-8 0 -14 6t-6 14q-2 78 -2 148z" />
<glyph unicode="&#xb8;" horiz-adv-x="648" d="M74 -378l36 280l98 -12q42 -6 66 8.5t24 37.5q0 21 -24 38q-22 17 -66 20l112 108q138 -56 205 -129t67 -149q0 -95 -90 -159.5t-232 -64.5q-40 0 -73 3t-50 6t-73 13z" />
<glyph unicode="&#xba;" horiz-adv-x="848" d="M45 832q0 72 10.5 127t31.5 96t50.5 69t72 46t90.5 26t110 11q60 0 102 -2.5t90 -11.5t81 -25t65.5 -44t51.5 -68t30 -98q12 -60 12 -134q0 -85 -16.5 -148.5t-47 -105t-78.5 -68t-105 -38.5t-132 -15q-154 0 -245.5 41t-132 123.5t-40.5 218.5zM374 836q0 -32 1.5 -50.5 t5 -33t11.5 -20.5t18 -8.5t28 -2.5q19 1 30.5 5t23.5 14.5t17 33t5 56.5q0 72 -12.5 94t-55.5 22q-28 -2 -42 -9.5t-22 -31t-8 -69.5z" />
<glyph unicode="&#xbb;" horiz-adv-x="940" d="M68 908q0 67 3 138q66 -34 169.5 -103.5t192.5 -135.5q21 -16 22 -29q7 -66 7 -160q0 -95 -1 -145q-104 -93 -325 -259q-44 -34 -50 -34q-8 0 -9 10q-3 104 -3 169q0 68 3 143q83 60 217 122q-109 48 -203 100q-8 4 -14 13t-6 17q-3 108 -3 154zM528 908q0 67 3 138 q66 -34 169.5 -103.5t192.5 -135.5q21 -16 22 -29q7 -66 7 -160q0 -95 -1 -145q-104 -93 -325 -259q-44 -34 -50 -34q-8 0 -9 10q-3 103 -3 169q0 68 3 143q83 60 217 122q-109 48 -203 100q-8 4 -14 13t-6 17q-3 108 -3 154z" />
<glyph unicode="&#xbf;" horiz-adv-x="796" d="M28 278q0 75 33 139.5t89 123.5q26 28 40 42.5t35 43t32 51t20 54.5t9 66q68 4 151 5q82 -1 185 -5q8 0 14 -6t6 -14q0 -58 -14.5 -109t-37.5 -87t-51 -67t-56 -55t-51 -45t-37.5 -43t-14.5 -42q0 -59 82 -59q67 0 165 34.5t128 55.5l45 -333q-176 -42 -367 -42 q-74 0 -133.5 8.5t-111.5 29t-86 53.5t-54 83.5t-20 117.5zM296 1062q0 66 2 138q73 4 148 4q66 0 172 -4q8 0 14 -6t6 -14q2 -82 2 -154q0 -64 -2 -136q-44 -2 -108 -2q-92 0 -212 6q-8 0 -14 6t-6 14q-2 78 -2 148z" />
<glyph unicode="&#xc0;" horiz-adv-x="1040" d="M20 16q0 8 9 63q26 164 60.5 340.5t88.5 437.5t70 343q100 4 275 4q163 0 285 -4q8 0 15 -6t9 -14q22 -112 74.5 -365t90 -447t63.5 -368q-94 -4 -174 -4q-128 0 -196 4q-8 0 -15 6t-9 14q-22 115 -36 200h-186q-16 -107 -38 -220q-96 -4 -166 -4q-83 0 -204 4 q-8 0 -12 4.5t-4 11.5zM230 1550q70 4 146 4q66 0 174 -4q8 0 17 -6t13 -14q18 -34 49 -92t56 -105t49 -93q-168 0 -322 8q-8 0 -17 6t-14 14q-109 197 -151 282zM478 480h112q-12 82 -32 234t-30 214q-10 -82 -26 -234t-24 -214z" />
<glyph unicode="&#xc1;" horiz-adv-x="1040" d="M20 16q0 8 9 63q26 164 60.5 340.5t88.5 437.5t70 343q100 4 275 4q163 0 285 -4q8 0 15 -6t9 -14q22 -112 74.5 -365t90 -447t63.5 -368q-94 -4 -174 -4q-128 0 -196 4q-8 0 -15 6t-9 14q-22 115 -36 200h-186q-16 -107 -38 -220q-96 -4 -166 -4q-83 0 -204 4 q-8 0 -12 4.5t-4 11.5zM358 1260.5q0 7.5 35 62.5q63 100 155 227q74 4 160 4q80 0 184 -4q10 0 10 -8q0 -10 -41 -60q-28 -34 -97.5 -113t-105.5 -125q-146 0 -290 8q-10 1 -10 8.5zM478 480h112q-12 82 -32 234t-30 214q-10 -82 -26 -234t-24 -214z" />
<glyph unicode="&#xc2;" horiz-adv-x="1040" d="M20 16q0 8 9 63q26 164 60.5 340.5t88.5 437.5t70 343q100 4 275 4q163 0 285 -4q8 0 15 -6t9 -14q22 -112 74.5 -365t90 -447t63.5 -368q-94 -4 -174 -4q-128 0 -196 4q-8 0 -15 6t-9 14q-22 115 -36 200h-186q-16 -107 -38 -220q-96 -4 -166 -4q-83 0 -204 4 q-8 0 -12 4.5t-4 11.5zM110 1242q34 66 78 133t107 153q13 18 31 18q132 6 282 6h138q74 -82 190 -236q2 -2 8 -10l10.5 -14t10 -14t8.5 -13.5t3 -8.5q0 -8 -10 -8q-104 -4 -162 -4q-68 0 -142 4q-26 35 -49.5 72.5t-36.5 63.5q-14 24 -36 68q-55 -110 -100 -190 q-4 -8 -13 -14t-17 -6q-108 -4 -163 -4q-67 0 -137 4zM478 480h112q-12 82 -32 234t-30 214q-10 -82 -26 -234t-24 -214z" />
<glyph unicode="&#xc3;" horiz-adv-x="1040" d="M20 16q0 8 9 63q26 164 60.5 340.5t88.5 437.5t70 343q100 4 275 4q163 0 285 -4q8 0 15 -6t9 -14q22 -112 74.5 -365t90 -447t63.5 -368q-94 -4 -174 -4q-128 0 -196 4q-8 0 -15 6t-9 14q-22 115 -36 200h-186q-16 -107 -38 -220q-96 -4 -166 -4q-83 0 -204 4 q-8 0 -12 4.5t-4 11.5zM144 1458q0 12 10 17q80 50 132.5 69.5t99.5 21.5q46 0 128 -26t124 -26q68 0 182 58q46 -74 84 -146q3 -6 14 -24.5t15.5 -28t4.5 -13.5q0 -12 -10 -18q-144 -98 -244 -98q-43 0 -116.5 22t-115.5 22q-72 0 -182 -56q-36 58 -81 140q-4 8 -11.5 21 t-12.5 22t-10.5 18t-8 16t-2.5 9zM478 480h112q-12 82 -32 234t-30 214q-10 -82 -26 -234t-24 -214z" />
<glyph unicode="&#xc4;" horiz-adv-x="1040" d="M20 20q27 173 61 353.5t93.5 469t73.5 357.5q100 4 275 4q163 0 285 -4q8 0 15 -6t9 -14q22 -112 74.5 -365t90 -447t63.5 -368q-94 -4 -174 -4q-128 0 -196 4q-8 0 -15 6t-9 14q-22 115 -36 200h-186q-16 -107 -38 -220q-96 -4 -166 -4q-83 0 -204 4q-8 0 -13 6t-3 14z M162 1416q0 56 2 128q60 3 136 3q74 0 152 -3q8 0 14 -6t6 -14q2 -81 2 -144q0 -56 -2 -128q-60 -2 -102 -2q-70 0 -186 6q-8 0 -14 6t-6 14q-2 80 -2 140zM478 480h112q-12 82 -32 234t-30 214q-10 -82 -26 -234t-24 -214zM606 1416q0 56 2 128q60 3 132 3q78 0 156 -3 q8 0 14 -6t6 -14q2 -81 2 -144q0 -56 -2 -128q-60 -2 -102 -2q-70 0 -186 6q-8 0 -14 6t-6 14q-2 79 -2 140z" />
<glyph unicode="&#xc5;" horiz-adv-x="1040" d="M20 16q0 8 9 63q26 164 60.5 340.5t88.5 437.5t70 343q86 4 211 4q-66 16 -95.5 59t-29.5 115q0 82 50 132t136 54q124 0 175 -44t51 -142q0 -66 -32 -111t-90 -63q80 0 184 -4q8 0 15 -6t9 -14q22 -112 74.5 -365t90 -447t63.5 -368q-94 -4 -174 -4q-128 0 -196 4 q-8 0 -15 6t-9 14q-22 115 -36 200h-186q-16 -107 -38 -220q-96 -4 -166 -4q-83 0 -204 4q-8 0 -12 4.5t-4 11.5zM478 480h112q-12 82 -32 234t-30 214q-10 -82 -26 -234t-24 -214zM500 1378q0 -26 9 -35t31 -9q21 0 30.5 9t9.5 36t-10 35q-10 9 -34 9q-18 0 -27 -9.5 t-9 -35.5z" />
<glyph unicode="&#xc6;" horiz-adv-x="1448" d="M20 16q0 8 9 63q26 164 60.5 340.5t88.5 437.5t70 343q222 6 581 6q318 0 575 -6q8 0 14 -6t6 -14q2 -122 2 -173q0 -78 -2 -147q-84 -4 -318 -4h-76q-2 -52 -2 -104q179 -1 240 -4q8 0 14 -6t6 -14q2 -82 2 -150q0 -62 -2 -134h-260q0 -35 2 -104h24q245 0 354 -4 q8 0 14 -6t6 -14q2 -122 2 -173q0 -78 -2 -147q-95 -4 -343 -4q-50 0 -211 3t-214 5q-8 0 -14 6t-6 14q-5 226 -7 416h-160q-30 -256 -67 -436q-96 -4 -166 -4q-83 0 -204 4q-8 0 -12 4.5t-4 11.5zM506 730h126v72q2 50 2 71q-20 0 -41 0.5l-42 1t-30 0.5q-9 -57 -15 -145z " />
<glyph unicode="&#xc7;" horiz-adv-x="830" d="M52 600q0 139 25 244.5t71 175.5t115 113.5t151.5 62t187.5 18.5q56 0 106 -8t122 -26l-43 -314l-185 13q-24 2 -42 -3.5t-35.5 -23.5t-29 -49t-18.5 -82t-7 -121t6 -120.5t17 -82t28 -48.5t36 -23t45 -4l185 12l41 -316q-116 -22 -221 -22q161 -66 161 -200 q0 -88 -81.5 -142t-236.5 -54q-30 0 -51 1.5t-32 3t-34 6t-39 7.5l26 200l48 -6q51 -6 73.5 16t2.5 48t-71 30l13 110q-82 19 -141 58.5t-104 107.5t-67 172t-22 246z" />
<glyph unicode="&#xc8;" horiz-adv-x="908" d="M92 600q0 280 8 600q95 4 415 4q226 0 349 -4q8 0 14 -6t6 -14q2 -122 2 -173q0 -78 -2 -147q-84 -4 -318 -4h-76q-2 -68 -2 -104q179 -1 240 -4q8 0 14 -6t6 -14q2 -82 2 -150q0 -62 -2 -134h-260q0 -35 2 -104h24q245 0 354 -4q8 0 14 -6t6 -14q2 -122 2 -173 q0 -78 -2 -147q-95 -4 -343 -4q-50 0 -211 3t-214 5q-8 0 -14 6t-6 14q-8 376 -8 580zM176 1550q70 4 146 4q66 0 174 -4q8 0 17 -6t13 -14q18 -34 49 -92t56 -105t49 -93q-168 0 -322 8q-8 0 -17 6t-14 14q-109 197 -151 282z" />
<glyph unicode="&#xc9;" horiz-adv-x="908" d="M92 600q0 280 8 600q95 4 415 4q226 0 349 -4q8 0 14 -6t6 -14q2 -122 2 -173q0 -78 -2 -147q-84 -4 -318 -4h-76q-2 -68 -2 -104q179 -1 240 -4q8 0 14 -6t6 -14q2 -82 2 -150q0 -62 -2 -134h-260q0 -35 2 -104h24q245 0 354 -4q8 0 14 -6t6 -14q2 -122 2 -173 q0 -78 -2 -147q-95 -4 -343 -4q-50 0 -211 3t-214 5q-8 0 -14 6t-6 14q-8 376 -8 580zM304 1260.5q0 7.5 35 62.5q63 100 155 227q74 4 160 4q80 0 184 -4q10 0 10 -8q0 -10 -41 -60q-28 -34 -97.5 -113t-105.5 -125q-146 0 -290 8q-10 1 -10 8.5z" />
<glyph unicode="&#xca;" horiz-adv-x="908" d="M56 1242q34 66 78 133t107 153q13 18 31 18q132 6 282 6h138q74 -82 190 -236q2 -2 8 -10l10.5 -14t10 -14t8.5 -13.5t3 -8.5q0 -8 -10 -8q-104 -4 -162 -4q-68 0 -142 4q-26 35 -49.5 72.5t-36.5 63.5q-14 24 -36 68q-55 -110 -100 -190q-4 -8 -13 -14t-17 -6 q-108 -4 -163 -4q-67 0 -137 4zM92 600q0 280 8 600q95 4 415 4q226 0 349 -4q8 0 14 -6t6 -14q2 -122 2 -173q0 -78 -2 -147q-84 -4 -318 -4h-76q-2 -68 -2 -104q179 -1 240 -4q8 0 14 -6t6 -14q2 -82 2 -150q0 -62 -2 -134h-260q0 -35 2 -104h24q245 0 354 -4q8 0 14 -6 t6 -14q2 -122 2 -173q0 -78 -2 -147q-95 -4 -343 -4q-50 0 -211 3t-214 5q-8 0 -14 6t-6 14q-8 376 -8 580z" />
<glyph unicode="&#xcb;" horiz-adv-x="908" d="M92 600q0 280 8 600q95 4 415 4q226 0 349 -4q8 0 14 -6t6 -14q2 -122 2 -173q0 -78 -2 -147q-84 -4 -318 -4h-76q-2 -68 -2 -104q179 -1 240 -4q8 0 14 -6t6 -14q2 -82 2 -150q0 -62 -2 -134h-260q0 -35 2 -104h24q245 0 354 -4q8 0 14 -6t6 -14q2 -122 2 -173 q0 -78 -2 -147q-95 -4 -343 -4q-50 0 -211 3t-214 5q-8 0 -14 6t-6 14q-8 376 -8 580zM108 1416q0 56 2 128q60 3 136 3q74 0 152 -3q8 0 14 -6t6 -14q2 -81 2 -144q0 -56 -2 -128q-60 -2 -102 -2q-70 0 -186 6q-8 0 -14 6t-6 14q-2 79 -2 140zM552 1416q0 56 2 128 q60 3 132 3q78 0 156 -3q8 0 14 -6t6 -14q2 -81 2 -144q0 -56 -2 -128q-60 -2 -102 -2q-70 0 -186 6q-8 0 -14 6t-6 14q-2 80 -2 140z" />
<glyph unicode="&#xcc;" horiz-adv-x="560" d="M-20 1550q70 4 146 4q66 0 174 -4q8 0 17 -6t13 -14q18 -34 49 -92t56 -105t49 -93q-168 0 -322 8q-8 0 -17 6t-14 14q-109 197 -151 282zM92 600q0 280 8 600q95 4 175 4q82 0 205 -4q8 0 14 -6t6 -14q8 -376 8 -580q0 -280 -8 -600q-95 -4 -175 -4q-82 0 -205 4 q-8 0 -14 6t-6 14q-8 376 -8 580z" />
<glyph unicode="&#xcd;" horiz-adv-x="560" d="M92 600q0 280 8 600q95 4 175 4q82 0 205 -4q8 0 14 -6t6 -14q8 -376 8 -580q0 -280 -8 -600q-95 -4 -175 -4q-82 0 -205 4q-8 0 -14 6t-6 14q-8 376 -8 580zM108 1260.5q0 7.5 35 62.5q63 100 155 227q74 4 160 4q80 0 184 -4q10 0 10 -8q0 -10 -41 -60 q-28 -34 -97.5 -113t-105.5 -125q-146 0 -290 8q-10 1 -10 8.5z" />
<glyph unicode="&#xce;" horiz-adv-x="560" d="M-140 1242q34 66 78 133t107 153q13 18 31 18q132 6 282 6h138q74 -82 190 -236q2 -2 8 -10l10.5 -14t10 -14t8.5 -13.5t3 -8.5q0 -8 -10 -8q-104 -4 -162 -4q-68 0 -142 4q-26 35 -49.5 72.5t-36.5 63.5q-14 24 -36 68q-55 -110 -100 -190q-4 -8 -13 -14t-17 -6 q-108 -4 -163 -4q-67 0 -137 4zM92 600q0 280 8 600q95 4 175 4q82 0 205 -4q8 0 14 -6t6 -14q8 -376 8 -580q0 -280 -8 -600q-95 -4 -175 -4q-82 0 -205 4q-8 0 -14 6t-6 14q-8 376 -8 580z" />
<glyph unicode="&#xcf;" horiz-adv-x="560" d="M-88 1416q0 56 2 128q60 3 136 3q74 0 152 -3q8 0 14 -6t6 -14q2 -81 2 -144q0 -56 -2 -128q-60 -2 -102 -2q-70 0 -186 6q-8 0 -14 6t-6 14q-2 79 -2 140zM92 600q0 280 8 600q95 4 175 4q82 0 205 -4q8 0 14 -6t6 -14q8 -376 8 -580q0 -280 -8 -600q-95 -4 -175 -4 q-82 0 -205 4q-8 0 -14 6t-6 14q-8 376 -8 580zM356 1416q0 56 2 128q60 3 132 3q78 0 156 -3q8 0 14 -6t6 -14q2 -81 2 -144q0 -56 -2 -128q-60 -2 -102 -2q-70 0 -186 6q-8 0 -14 6t-6 14q-2 80 -2 140z" />
<glyph unicode="&#xd0;" d="M22 602q0 59 2 146q38 2 72 2q0 34 2 188.5t2 241.5q99 15 216 24.5t202 9.5q104 0 184 -18.5t145 -62t107 -113.5t64 -175t22 -245q0 -106 -11 -190.5t-32 -147.5t-55 -109.5t-75 -76.5t-96 -48t-114 -25t-135 -7q-126 0 -402 24q-8 0 -14 6t-6 14q0 60 -0.5 125t-1 144 t-1.5 125q-32 2 -53 2q-8 0 -14 6t-6 14q-2 104 -2 146zM494 430q0 -16 1 -47.5t1 -46.5h54q16 0 27 3t23 12t20.5 28t15.5 47t10.5 72t3.5 102q0 69 -5.5 118.5t-14 77.5t-22.5 44t-27 20.5t-31 4.5h-54q-2 -73 -2 -115q37 -1 58 -2q8 0 14 -6t6 -14q2 -62 2 -170 q0 -39 -2 -126q-38 -2 -78 -2z" />
<glyph unicode="&#xd1;" horiz-adv-x="1100" d="M92 600q0 280 8 600q95 4 165 4q60 0 173 -4q14 0 22 -20l207 -512l-7 532q96 4 175 4q78 0 185 -4q8 0 14 -6t6 -14q8 -376 8 -580q0 -280 -8 -600q-83 -4 -155 -4q-86 0 -183 4q-15 0 -22 20l-207 512l7 -532q-95 -4 -165 -4q-79 0 -195 4q-8 0 -14 6t-6 14 q-8 376 -8 580zM180 1458q0 12 10 17q80 50 132.5 69.5t99.5 21.5q46 0 128 -26t124 -26q68 0 182 58q46 -74 84 -146q3 -6 14 -24.5t15.5 -28t4.5 -13.5q0 -12 -10 -18q-144 -98 -244 -98q-43 0 -116.5 22t-115.5 22q-72 0 -182 -56q-36 58 -81 140q-4 8 -11.5 21t-12.5 22 t-10.5 18t-8 16t-2.5 9z" />
<glyph unicode="&#xd2;" d="M52 600q0 146 31.5 260t91 190t143.5 117t190 47q98 0 174 -13t140 -43t109 -77.5t76 -115.5t46 -158.5t15 -206.5q0 -146 -32 -259t-92 -189t-145 -117t-191 -47q-97 0 -173.5 13t-139.5 43t-108 77t-75.5 115t-45 158t-14.5 206zM258 1550q70 4 146 4q66 0 174 -4 q8 0 17 -6t13 -14q18 -34 49 -92t56 -105t49 -93q-168 0 -322 8q-8 0 -17 6t-14 14q-109 197 -151 282zM470 600q0 -70 5 -119t12 -77t19.5 -43.5t25 -20t30.5 -4.5t30 4.5t24 20t19 43.5t11 77t4 119q0 58 -3 102t-9.5 72.5t-14 47t-19.5 27.5t-22.5 12t-25.5 3t-25.5 -3 t-20.5 -12t-17 -27.5t-12.5 -47t-8 -72.5t-2.5 -102z" />
<glyph unicode="&#xd3;" d="M52 600q0 146 31.5 260t91 190t143.5 117t190 47q98 0 174 -13t140 -43t109 -77.5t76 -115.5t46 -158.5t15 -206.5q0 -146 -32 -259t-92 -189t-145 -117t-191 -47q-97 0 -173.5 13t-139.5 43t-108 77t-75.5 115t-45 158t-14.5 206zM386 1260.5q0 7.5 35 62.5 q63 100 155 227q74 4 160 4q80 0 184 -4q10 0 10 -8q0 -10 -41 -60q-28 -34 -97.5 -113t-105.5 -125q-146 0 -290 8q-10 1 -10 8.5zM470 600q0 -70 5 -119t12 -77t19.5 -43.5t25 -20t30.5 -4.5t30 4.5t24 20t19 43.5t11 77t4 119q0 58 -3 102t-9.5 72.5t-14 47t-19.5 27.5 t-22.5 12t-25.5 3t-25.5 -3t-20.5 -12t-17 -27.5t-12.5 -47t-8 -72.5t-2.5 -102z" />
<glyph unicode="&#xd4;" d="M52 600q0 146 31.5 260t91 190t143.5 117t190 47q98 0 174 -13t140 -43t109 -77.5t76 -115.5t46 -158.5t15 -206.5q0 -146 -32 -259t-92 -189t-145 -117t-191 -47q-97 0 -173.5 13t-139.5 43t-108 77t-75.5 115t-45 158t-14.5 206zM138 1242q34 66 78 133t107 153 q13 18 31 18q132 6 282 6h138q74 -82 190 -236q2 -2 8 -10l10.5 -14t10 -14t8.5 -13.5t3 -8.5q0 -8 -10 -8q-104 -4 -162 -4q-68 0 -142 4q-26 35 -49.5 72.5t-36.5 63.5q-14 24 -36 68q-55 -110 -100 -190q-4 -8 -13 -14t-17 -6q-108 -4 -163 -4q-67 0 -137 4zM470 600 q0 -70 5 -119t12 -77t19.5 -43.5t25 -20t30.5 -4.5t30 4.5t24 20t19 43.5t11 77t4 119q0 58 -3 102t-9.5 72.5t-14 47t-19.5 27.5t-22.5 12t-25.5 3t-25.5 -3t-20.5 -12t-17 -27.5t-12.5 -47t-8 -72.5t-2.5 -102z" />
<glyph unicode="&#xd5;" d="M52 600q0 146 31.5 260t91 190t143.5 117t190 47q98 0 174 -13t140 -43t109 -77.5t76 -115.5t46 -158.5t15 -206.5q0 -146 -32 -259t-92 -189t-145 -117t-191 -47q-97 0 -173.5 13t-139.5 43t-108 77t-75.5 115t-45 158t-14.5 206zM172 1458q0 12 10 17q80 50 132.5 69.5 t99.5 21.5q46 0 128 -26t124 -26q68 0 182 58q46 -74 84 -146q3 -6 14 -24.5t15.5 -28t4.5 -13.5q0 -12 -10 -18q-144 -98 -244 -98q-43 0 -116.5 22t-115.5 22q-72 0 -182 -56q-36 58 -81 140q-4 8 -11.5 21t-12.5 22t-10.5 18t-8 16t-2.5 9zM470 600q0 -70 5 -119t12 -77 t19.5 -43.5t25 -20t30.5 -4.5t30 4.5t24 20t19 43.5t11 77t4 119q0 58 -3 102t-9.5 72.5t-14 47t-19.5 27.5t-22.5 12t-25.5 3t-25.5 -3t-20.5 -12t-17 -27.5t-12.5 -47t-8 -72.5t-2.5 -102z" />
<glyph unicode="&#xd6;" d="M52 600q0 146 31.5 260t91 190t143.5 117t190 47q98 0 174 -13t140 -43t109 -77.5t76 -115.5t46 -158.5t15 -206.5q0 -146 -32 -259t-92 -189t-145 -117t-191 -47q-97 0 -173.5 13t-139.5 43t-108 77t-75.5 115t-45 158t-14.5 206zM190 1416q0 56 2 128q60 3 136 3 q74 0 152 -3q8 0 14 -6t6 -14q2 -81 2 -144q0 -56 -2 -128q-60 -2 -102 -2q-70 0 -186 6q-8 0 -14 6t-6 14q-2 80 -2 140zM470 600q0 -70 5 -119t12 -77t19.5 -43.5t25 -20t30.5 -4.5t30 4.5t24 20t19 43.5t11 77t4 119q0 58 -3 102t-9.5 72.5t-14 47t-19.5 27.5t-22.5 12 t-25.5 3t-25.5 -3t-20.5 -12t-17 -27.5t-12.5 -47t-8 -72.5t-2.5 -102zM634 1416q0 56 2 128q60 3 132 3q78 0 156 -3q8 0 14 -6t6 -14q2 -81 2 -144q0 -56 -2 -128q-60 -2 -102 -2q-70 0 -186 6q-8 0 -14 6t-6 14q-2 79 -2 140z" />
<glyph unicode="&#xd7;" horiz-adv-x="886" d="M80 422q0 8 6 13q36 39 170 179q-144 150 -165 172q-5 6 -5 12q0 8 5 13q49 53 75 79q36 36 106 102q30 -26 184 -178q74 73 202 194q36 -32 94 -90q52 -52 106 -110q6 -6 5 -12q1 -8 -5 -13q-8 -9 -75 -79t-107 -110q124 -126 166 -172q5 -5 5.5 -12.5t-5.5 -12.5 q-14 -16 -80 -83q-66 -65 -104 -101q-30 28 -183 179q-64 -62 -190 -182q-42 38 -94 90t-105 110q-6 6 -6 12z" />
<glyph unicode="&#xd8;" d="M52 600q0 146 31.5 260t91 190t143.5 117t190 47q172 0 281 -42l87 176l108 -52l-94 -179q91 -68 134.5 -194.5t43.5 -322.5q0 -146 -32 -259t-92 -189t-145 -117t-191 -47q-166 0 -276 40l-88 -176l-108 52l94 178q-91 68 -134.5 194t-43.5 324zM470 600q0 -24 1 -62 l59 112l89 180q-12 20 -27 27t-36 7q-15 0 -25.5 -3t-20.5 -12t-17 -27.5t-12.5 -47t-8 -72.5t-2.5 -102zM501 368q11 -19 26 -25.5t35 -6.5q18 0 30 4.5t24 20t19 43.5t11 77t4 119q0 24 -1 62l-31 -60z" />
<glyph unicode="&#xd9;" horiz-adv-x="1056" d="M54 592q0 288 8 608q95 4 175 4q82 0 205 -4q8 0 14 -6t6 -14q8 -376 8 -648q0 -66 4.5 -107t15.5 -62t24.5 -28t35.5 -7q30 0 45 13.5t23 58t8 132.5q0 348 8 668q96 4 175 4q82 0 205 -4q8 0 14 -6t6 -14q8 -376 8 -588q0 -128 -19.5 -228t-56 -170t-91.5 -117 t-124 -70t-155 -27q-70 0 -127 6t-110 19t-93 36t-75.5 57t-60 80t-42.5 106.5t-26 137t-8 170.5zM238 1550q70 4 146 4q66 0 174 -4q8 0 17 -6t13 -14q18 -34 49 -92t56 -105t49 -93q-168 0 -322 8q-8 0 -17 6t-14 14q-109 197 -151 282z" />
<glyph unicode="&#xda;" horiz-adv-x="1056" d="M54 592q0 288 8 608q95 4 175 4q82 0 205 -4q8 0 14 -6t6 -14q8 -376 8 -648q0 -66 4.5 -107t15.5 -62t24.5 -28t35.5 -7q30 0 45 13.5t23 58t8 132.5q0 348 8 668q96 4 175 4q82 0 205 -4q8 0 14 -6t6 -14q8 -376 8 -588q0 -128 -19.5 -228t-56 -170t-91.5 -117 t-124 -70t-155 -27q-70 0 -127 6t-110 19t-93 36t-75.5 57t-60 80t-42.5 106.5t-26 137t-8 170.5zM366 1260.5q0 7.5 35 62.5q63 100 155 227q74 4 160 4q80 0 184 -4q10 0 10 -8q0 -10 -41 -60q-28 -34 -97.5 -113t-105.5 -125q-146 0 -290 8q-10 1 -10 8.5z" />
<glyph unicode="&#xdb;" horiz-adv-x="1056" d="M54 592q0 288 8 608q95 4 175 4q82 0 205 -4q8 0 14 -6t6 -14q8 -376 8 -648q0 -66 4.5 -107t15.5 -62t24.5 -28t35.5 -7q30 0 45 13.5t23 58t8 132.5q0 348 8 668q96 4 175 4q82 0 205 -4q8 0 14 -6t6 -14q8 -376 8 -588q0 -128 -19.5 -228t-56 -170t-91.5 -117 t-124 -70t-155 -27q-70 0 -127 6t-110 19t-93 36t-75.5 57t-60 80t-42.5 106.5t-26 137t-8 170.5zM118 1242q34 66 78 133t107 153q13 18 31 18q132 6 282 6h138q74 -82 190 -236q2 -2 8 -10l10.5 -14t10 -14t8.5 -13.5t3 -8.5q0 -8 -10 -8q-104 -4 -162 -4q-68 0 -142 4 q-26 35 -49.5 72.5t-36.5 63.5q-14 24 -36 68q-55 -110 -100 -190q-4 -8 -13 -14t-17 -6q-108 -4 -163 -4q-67 0 -137 4z" />
<glyph unicode="&#xdc;" horiz-adv-x="1056" d="M54 592q0 288 8 608q95 4 175 4q82 0 205 -4q8 0 14 -6t6 -14q8 -376 8 -648q0 -66 4.5 -107t15.5 -62t24.5 -28t35.5 -7q30 0 45 13.5t23 58t8 132.5q0 348 8 668q96 4 175 4q82 0 205 -4q8 0 14 -6t6 -14q8 -376 8 -588q0 -128 -19.5 -228t-56 -170t-91.5 -117 t-124 -70t-155 -27q-70 0 -127 6t-110 19t-93 36t-75.5 57t-60 80t-42.5 106.5t-26 137t-8 170.5zM170 1416q0 56 2 128q60 3 136 3q74 0 152 -3q8 0 14 -6t6 -14q2 -81 2 -144q0 -56 -2 -128q-60 -2 -102 -2q-70 0 -186 6q-8 0 -14 6t-6 14q-2 80 -2 140zM614 1416 q0 56 2 128q60 3 132 3q78 0 156 -3q8 0 14 -6t6 -14q2 -81 2 -144q0 -56 -2 -128q-60 -2 -102 -2q-70 0 -186 6q-8 0 -14 6t-6 14q-2 79 -2 140z" />
<glyph unicode="&#xdd;" horiz-adv-x="1050" d="M16 1193q92 11 210 11q85 0 160 -5q10 0 19 -5.5t11 -14.5q48 -146 128 -436q78 280 129 436q3 8 12 13.5t19 6.5q76 5 160 5q118 0 210 -11q-80 -336 -168 -510q-62 -107 -161 -189q4 -330 5 -494q-95 -4 -179 -4q-86 0 -209 4q-8 0 -14 6t-6 14q0 150 3 474 q-101 83 -163 189q-86 172 -166 510zM366 1260.5q0 7.5 35 62.5q63 100 155 227q74 4 160 4q80 0 184 -4q10 0 10 -8q0 -10 -41 -60q-28 -34 -97.5 -113t-105.5 -125q-146 0 -290 8q-10 1 -10 8.5z" />
<glyph unicode="&#xde;" horiz-adv-x="1020" d="M92 600q0 280 8 600q95 4 175 4q82 0 205 -4q8 0 14 -6t6 -14q0 -36 -1 -86q52 0 93.5 -2t85.5 -7t77.5 -14t67 -22t59 -32t49 -44t39 -58t27.5 -73.5t17.5 -91t5.5 -110.5q0 -75 -12 -135.5t-34 -106.5t-57 -80.5t-77 -57t-97 -37t-114 -21t-131 -6.5q2 -132 2 -196 q-95 -4 -175 -4q-82 0 -205 4q-8 0 -14 6t-6 14q-8 376 -8 580zM492 524h20q18 0 31 2t27.5 9t23 18t14.5 32t6 49.5t-1 45.5t-4.5 31.5t-9 21.5t-16 12t-24 6.5t-33.5 1.5q-4 0 -15 -0.5t-18 -0.5q-1 -100 -1 -152v-38v-38z" />
<glyph unicode="&#xdf;" horiz-adv-x="1142" d="M76 610q0 82 7.5 152t21.5 126t36 101t48.5 79t62 59t74 41.5t85.5 27t96 14.5t107 4q233 0 436 -36q-40 -178 -122 -490q222 -112 222 -334q0 -83 -21.5 -146.5t-58 -105t-90.5 -67.5t-114 -36.5t-132 -10.5q-84 0 -186 14l43 319q73 -17 101 -17q24 0 38 13t14 33 q0 16 -14 29.5t-41 24t-51 17.5t-60 15q26 232 60 438h-50q-19 0 -32.5 -4.5t-27.5 -20t-22.5 -43.5t-14 -77.5t-5.5 -118.5q0 -210 -10 -610q-95 -4 -171 -4q-78 0 -201 4q-8 0 -14 6t-6 14q-8 376 -8 590z" />
<glyph unicode="&#xe0;" horiz-adv-x="1040" d="M20 16q0 8 9 63q26 164 60.5 340.5t88.5 437.5t70 343q100 4 275 4q163 0 285 -4q8 0 15 -6t9 -14q22 -112 74.5 -365t90 -447t63.5 -368q-94 -4 -174 -4q-128 0 -196 4q-8 0 -15 6t-9 14q-22 115 -36 200h-186q-16 -107 -38 -220q-96 -4 -166 -4q-83 0 -204 4 q-8 0 -12 4.5t-4 11.5zM230 1550q70 4 146 4q66 0 174 -4q8 0 17 -6t13 -14q18 -34 49 -92t56 -105t49 -93q-168 0 -322 8q-8 0 -17 6t-14 14q-109 197 -151 282zM478 480h112q-12 82 -32 234t-30 214q-10 -82 -26 -234t-24 -214z" />
<glyph unicode="&#xe1;" horiz-adv-x="1040" d="M20 16q0 8 9 63q26 164 60.5 340.5t88.5 437.5t70 343q100 4 275 4q163 0 285 -4q8 0 15 -6t9 -14q22 -112 74.5 -365t90 -447t63.5 -368q-94 -4 -174 -4q-128 0 -196 4q-8 0 -15 6t-9 14q-22 115 -36 200h-186q-16 -107 -38 -220q-96 -4 -166 -4q-83 0 -204 4 q-8 0 -12 4.5t-4 11.5zM358 1260.5q0 7.5 35 62.5q63 100 155 227q74 4 160 4q80 0 184 -4q10 0 10 -8q0 -10 -41 -60q-28 -34 -97.5 -113t-105.5 -125q-146 0 -290 8q-10 1 -10 8.5zM478 480h112q-12 82 -32 234t-30 214q-10 -82 -26 -234t-24 -214z" />
<glyph unicode="&#xe2;" horiz-adv-x="1040" d="M20 16q0 8 9 63q26 164 60.5 340.5t88.5 437.5t70 343q100 4 275 4q163 0 285 -4q8 0 15 -6t9 -14q22 -112 74.5 -365t90 -447t63.5 -368q-94 -4 -174 -4q-128 0 -196 4q-8 0 -15 6t-9 14q-22 115 -36 200h-186q-16 -107 -38 -220q-96 -4 -166 -4q-83 0 -204 4 q-8 0 -12 4.5t-4 11.5zM110 1242q34 66 78 133t107 153q13 18 31 18q132 6 282 6h138q74 -82 190 -236q2 -2 8 -10l10.5 -14t10 -14t8.5 -13.5t3 -8.5q0 -8 -10 -8q-104 -4 -162 -4q-68 0 -142 4q-26 35 -49.5 72.5t-36.5 63.5q-14 24 -36 68q-55 -110 -100 -190 q-4 -8 -13 -14t-17 -6q-108 -4 -163 -4q-67 0 -137 4zM478 480h112q-12 82 -32 234t-30 214q-10 -82 -26 -234t-24 -214z" />
<glyph unicode="&#xe3;" horiz-adv-x="1040" d="M20 16q0 8 9 63q26 164 60.5 340.5t88.5 437.5t70 343q100 4 275 4q163 0 285 -4q8 0 15 -6t9 -14q22 -112 74.5 -365t90 -447t63.5 -368q-94 -4 -174 -4q-128 0 -196 4q-8 0 -15 6t-9 14q-22 115 -36 200h-186q-16 -107 -38 -220q-96 -4 -166 -4q-83 0 -204 4 q-8 0 -12 4.5t-4 11.5zM144 1458q0 12 10 17q80 50 132.5 69.5t99.5 21.5q46 0 128 -26t124 -26q68 0 182 58q46 -74 84 -146q3 -6 14 -24.5t15.5 -28t4.5 -13.5q0 -12 -10 -18q-144 -98 -244 -98q-43 0 -116.5 22t-115.5 22q-72 0 -182 -56q-36 58 -81 140q-4 8 -11.5 21 t-12.5 22t-10.5 18t-8 16t-2.5 9zM478 480h112q-12 82 -32 234t-30 214q-10 -82 -26 -234t-24 -214z" />
<glyph unicode="&#xe4;" horiz-adv-x="1040" d="M20 20q27 173 61 353.5t93.5 469t73.5 357.5q100 4 275 4q163 0 285 -4q8 0 15 -6t9 -14q22 -112 74.5 -365t90 -447t63.5 -368q-94 -4 -174 -4q-128 0 -196 4q-8 0 -15 6t-9 14q-22 115 -36 200h-186q-16 -107 -38 -220q-96 -4 -166 -4q-83 0 -204 4q-8 0 -13 6t-3 14z M162 1416q0 56 2 128q60 3 136 3q74 0 152 -3q8 0 14 -6t6 -14q2 -81 2 -144q0 -56 -2 -128q-60 -2 -102 -2q-70 0 -186 6q-8 0 -14 6t-6 14q-2 80 -2 140zM478 480h112q-12 82 -32 234t-30 214q-10 -82 -26 -234t-24 -214zM606 1416q0 56 2 128q60 3 132 3q78 0 156 -3 q8 0 14 -6t6 -14q2 -81 2 -144q0 -56 -2 -128q-60 -2 -102 -2q-70 0 -186 6q-8 0 -14 6t-6 14q-2 79 -2 140z" />
<glyph unicode="&#xe5;" horiz-adv-x="1040" d="M20 16q0 8 9 63q26 164 60.5 340.5t88.5 437.5t70 343q86 4 211 4q-66 16 -95.5 59t-29.5 115q0 82 50 132t136 54q124 0 175 -44t51 -142q0 -66 -32 -111t-90 -63q80 0 184 -4q8 0 15 -6t9 -14q22 -112 74.5 -365t90 -447t63.5 -368q-94 -4 -174 -4q-128 0 -196 4 q-8 0 -15 6t-9 14q-22 115 -36 200h-186q-16 -107 -38 -220q-96 -4 -166 -4q-83 0 -204 4q-8 0 -12 4.5t-4 11.5zM478 480h112q-12 82 -32 234t-30 214q-10 -82 -26 -234t-24 -214zM500 1378q0 -26 9 -35t31 -9q21 0 30.5 9t9.5 36t-10 35q-10 9 -34 9q-18 0 -27 -9.5 t-9 -35.5z" />
<glyph unicode="&#xe6;" horiz-adv-x="1448" d="M20 16q0 8 9 63q26 164 60.5 340.5t88.5 437.5t70 343q222 6 581 6q318 0 575 -6q8 0 14 -6t6 -14q2 -122 2 -173q0 -78 -2 -147q-84 -4 -318 -4h-76q-2 -52 -2 -104q179 -1 240 -4q8 0 14 -6t6 -14q2 -82 2 -150q0 -62 -2 -134h-260q0 -35 2 -104h24q245 0 354 -4 q8 0 14 -6t6 -14q2 -122 2 -173q0 -78 -2 -147q-95 -4 -343 -4q-50 0 -211 3t-214 5q-8 0 -14 6t-6 14q-5 226 -7 416h-160q-30 -256 -67 -436q-96 -4 -166 -4q-83 0 -204 4q-8 0 -12 4.5t-4 11.5zM506 730h126v72q2 50 2 71q-20 0 -41 0.5l-42 1t-30 0.5q-9 -57 -15 -145z " />
<glyph unicode="&#xe7;" horiz-adv-x="830" d="M52 600q0 139 25 244.5t71 175.5t115 113.5t151.5 62t187.5 18.5q56 0 106 -8t122 -26l-43 -314l-185 13q-24 2 -42 -3.5t-35.5 -23.5t-29 -49t-18.5 -82t-7 -121t6 -120.5t17 -82t28 -48.5t36 -23t45 -4l185 12l41 -316q-116 -22 -221 -22q161 -66 161 -200 q0 -88 -81.5 -142t-236.5 -54q-30 0 -51 1.5t-32 3t-34 6t-39 7.5l26 200l48 -6q51 -6 73.5 16t2.5 48t-71 30l13 110q-82 19 -141 58.5t-104 107.5t-67 172t-22 246z" />
<glyph unicode="&#xe8;" horiz-adv-x="908" d="M92 600q0 280 8 600q95 4 415 4q226 0 349 -4q8 0 14 -6t6 -14q2 -122 2 -173q0 -78 -2 -147q-84 -4 -318 -4h-76q-2 -68 -2 -104q179 -1 240 -4q8 0 14 -6t6 -14q2 -82 2 -150q0 -62 -2 -134h-260q0 -35 2 -104h24q245 0 354 -4q8 0 14 -6t6 -14q2 -122 2 -173 q0 -78 -2 -147q-95 -4 -343 -4q-50 0 -211 3t-214 5q-8 0 -14 6t-6 14q-8 376 -8 580zM176 1550q70 4 146 4q66 0 174 -4q8 0 17 -6t13 -14q18 -34 49 -92t56 -105t49 -93q-168 0 -322 8q-8 0 -17 6t-14 14q-109 197 -151 282z" />
<glyph unicode="&#xe9;" horiz-adv-x="908" d="M92 600q0 280 8 600q95 4 415 4q226 0 349 -4q8 0 14 -6t6 -14q2 -122 2 -173q0 -78 -2 -147q-84 -4 -318 -4h-76q-2 -68 -2 -104q179 -1 240 -4q8 0 14 -6t6 -14q2 -82 2 -150q0 -62 -2 -134h-260q0 -35 2 -104h24q245 0 354 -4q8 0 14 -6t6 -14q2 -122 2 -173 q0 -78 -2 -147q-95 -4 -343 -4q-50 0 -211 3t-214 5q-8 0 -14 6t-6 14q-8 376 -8 580zM304 1260.5q0 7.5 35 62.5q63 100 155 227q74 4 160 4q80 0 184 -4q10 0 10 -8q0 -10 -41 -60q-28 -34 -97.5 -113t-105.5 -125q-146 0 -290 8q-10 1 -10 8.5z" />
<glyph unicode="&#xea;" horiz-adv-x="908" d="M56 1242q34 66 78 133t107 153q13 18 31 18q132 6 282 6h138q74 -82 190 -236q2 -2 8 -10l10.5 -14t10 -14t8.5 -13.5t3 -8.5q0 -8 -10 -8q-104 -4 -162 -4q-68 0 -142 4q-26 35 -49.5 72.5t-36.5 63.5q-14 24 -36 68q-55 -110 -100 -190q-4 -8 -13 -14t-17 -6 q-108 -4 -163 -4q-67 0 -137 4zM92 600q0 280 8 600q95 4 415 4q226 0 349 -4q8 0 14 -6t6 -14q2 -122 2 -173q0 -78 -2 -147q-84 -4 -318 -4h-76q-2 -68 -2 -104q179 -1 240 -4q8 0 14 -6t6 -14q2 -82 2 -150q0 -62 -2 -134h-260q0 -35 2 -104h24q245 0 354 -4q8 0 14 -6 t6 -14q2 -122 2 -173q0 -78 -2 -147q-95 -4 -343 -4q-50 0 -211 3t-214 5q-8 0 -14 6t-6 14q-8 376 -8 580z" />
<glyph unicode="&#xeb;" horiz-adv-x="908" d="M92 600q0 280 8 600q95 4 415 4q226 0 349 -4q8 0 14 -6t6 -14q2 -122 2 -173q0 -78 -2 -147q-84 -4 -318 -4h-76q-2 -68 -2 -104q179 -1 240 -4q8 0 14 -6t6 -14q2 -82 2 -150q0 -62 -2 -134h-260q0 -35 2 -104h24q245 0 354 -4q8 0 14 -6t6 -14q2 -122 2 -173 q0 -78 -2 -147q-95 -4 -343 -4q-50 0 -211 3t-214 5q-8 0 -14 6t-6 14q-8 376 -8 580zM108 1416q0 56 2 128q60 3 136 3q74 0 152 -3q8 0 14 -6t6 -14q2 -81 2 -144q0 -56 -2 -128q-60 -2 -102 -2q-70 0 -186 6q-8 0 -14 6t-6 14q-2 79 -2 140zM552 1416q0 56 2 128 q60 3 132 3q78 0 156 -3q8 0 14 -6t6 -14q2 -81 2 -144q0 -56 -2 -128q-60 -2 -102 -2q-70 0 -186 6q-8 0 -14 6t-6 14q-2 80 -2 140z" />
<glyph unicode="&#xec;" horiz-adv-x="560" d="M-20 1550q70 4 146 4q66 0 174 -4q8 0 17 -6t13 -14q18 -34 49 -92t56 -105t49 -93q-168 0 -322 8q-8 0 -17 6t-14 14q-109 197 -151 282zM92 600q0 280 8 600q95 4 175 4q82 0 205 -4q8 0 14 -6t6 -14q8 -376 8 -580q0 -280 -8 -600q-95 -4 -175 -4q-82 0 -205 4 q-8 0 -14 6t-6 14q-8 376 -8 580z" />
<glyph unicode="&#xed;" horiz-adv-x="560" d="M92 600q0 280 8 600q95 4 175 4q82 0 205 -4q8 0 14 -6t6 -14q8 -376 8 -580q0 -280 -8 -600q-95 -4 -175 -4q-82 0 -205 4q-8 0 -14 6t-6 14q-8 376 -8 580zM108 1260.5q0 7.5 35 62.5q63 100 155 227q74 4 160 4q80 0 184 -4q10 0 10 -8q0 -10 -41 -60 q-28 -34 -97.5 -113t-105.5 -125q-146 0 -290 8q-10 1 -10 8.5z" />
<glyph unicode="&#xee;" horiz-adv-x="560" d="M-140 1242q34 66 78 133t107 153q13 18 31 18q132 6 282 6h138q74 -82 190 -236q2 -2 8 -10l10.5 -14t10 -14t8.5 -13.5t3 -8.5q0 -8 -10 -8q-104 -4 -162 -4q-68 0 -142 4q-26 35 -49.5 72.5t-36.5 63.5q-14 24 -36 68q-55 -110 -100 -190q-4 -8 -13 -14t-17 -6 q-108 -4 -163 -4q-67 0 -137 4zM92 600q0 280 8 600q95 4 175 4q82 0 205 -4q8 0 14 -6t6 -14q8 -376 8 -580q0 -280 -8 -600q-95 -4 -175 -4q-82 0 -205 4q-8 0 -14 6t-6 14q-8 376 -8 580z" />
<glyph unicode="&#xef;" horiz-adv-x="560" d="M-88 1416q0 56 2 128q60 3 136 3q74 0 152 -3q8 0 14 -6t6 -14q2 -81 2 -144q0 -56 -2 -128q-60 -2 -102 -2q-70 0 -186 6q-8 0 -14 6t-6 14q-2 79 -2 140zM92 600q0 280 8 600q95 4 175 4q82 0 205 -4q8 0 14 -6t6 -14q8 -376 8 -580q0 -280 -8 -600q-95 -4 -175 -4 q-82 0 -205 4q-8 0 -14 6t-6 14q-8 376 -8 580zM356 1416q0 56 2 128q60 3 132 3q78 0 156 -3q8 0 14 -6t6 -14q2 -81 2 -144q0 -56 -2 -128q-60 -2 -102 -2q-70 0 -186 6q-8 0 -14 6t-6 14q-2 80 -2 140z" />
<glyph unicode="&#xf0;" d="M22 602q0 59 2 146q38 2 72 2q0 34 2 188.5t2 241.5q99 15 216 24.5t202 9.5q104 0 184 -18.5t145 -62t107 -113.5t64 -175t22 -245q0 -106 -11 -190.5t-32 -147.5t-55 -109.5t-75 -76.5t-96 -48t-114 -25t-135 -7q-126 0 -402 24q-8 0 -14 6t-6 14q0 60 -0.5 125t-1 144 t-1.5 125q-32 2 -53 2q-8 0 -14 6t-6 14q-2 104 -2 146zM494 430q0 -16 1 -47.5t1 -46.5h54q16 0 27 3t23 12t20.5 28t15.5 47t10.5 72t3.5 102q0 69 -5.5 118.5t-14 77.5t-22.5 44t-27 20.5t-31 4.5h-54q-2 -73 -2 -115q37 -1 58 -2q8 0 14 -6t6 -14q2 -62 2 -170 q0 -39 -2 -126q-38 -2 -78 -2z" />
<glyph unicode="&#xf1;" horiz-adv-x="1100" d="M92 600q0 280 8 600q95 4 165 4q60 0 173 -4q14 0 22 -20l207 -512l-7 532q96 4 175 4q78 0 185 -4q8 0 14 -6t6 -14q8 -376 8 -580q0 -280 -8 -600q-83 -4 -155 -4q-86 0 -183 4q-15 0 -22 20l-207 512l7 -532q-95 -4 -165 -4q-79 0 -195 4q-8 0 -14 6t-6 14 q-8 376 -8 580zM180 1458q0 12 10 17q80 50 132.5 69.5t99.5 21.5q46 0 128 -26t124 -26q68 0 182 58q46 -74 84 -146q3 -6 14 -24.5t15.5 -28t4.5 -13.5q0 -12 -10 -18q-144 -98 -244 -98q-43 0 -116.5 22t-115.5 22q-72 0 -182 -56q-36 58 -81 140q-4 8 -11.5 21t-12.5 22 t-10.5 18t-8 16t-2.5 9z" />
<glyph unicode="&#xf2;" d="M52 600q0 146 31.5 260t91 190t143.5 117t190 47q98 0 174 -13t140 -43t109 -77.5t76 -115.5t46 -158.5t15 -206.5q0 -146 -32 -259t-92 -189t-145 -117t-191 -47q-97 0 -173.5 13t-139.5 43t-108 77t-75.5 115t-45 158t-14.5 206zM258 1550q70 4 146 4q66 0 174 -4 q8 0 17 -6t13 -14q18 -34 49 -92t56 -105t49 -93q-168 0 -322 8q-8 0 -17 6t-14 14q-109 197 -151 282zM470 600q0 -70 5 -119t12 -77t19.5 -43.5t25 -20t30.5 -4.5t30 4.5t24 20t19 43.5t11 77t4 119q0 58 -3 102t-9.5 72.5t-14 47t-19.5 27.5t-22.5 12t-25.5 3t-25.5 -3 t-20.5 -12t-17 -27.5t-12.5 -47t-8 -72.5t-2.5 -102z" />
<glyph unicode="&#xf3;" d="M52 600q0 146 31.5 260t91 190t143.5 117t190 47q98 0 174 -13t140 -43t109 -77.5t76 -115.5t46 -158.5t15 -206.5q0 -146 -32 -259t-92 -189t-145 -117t-191 -47q-97 0 -173.5 13t-139.5 43t-108 77t-75.5 115t-45 158t-14.5 206zM386 1260.5q0 7.5 35 62.5 q63 100 155 227q74 4 160 4q80 0 184 -4q10 0 10 -8q0 -10 -41 -60q-28 -34 -97.5 -113t-105.5 -125q-146 0 -290 8q-10 1 -10 8.5zM470 600q0 -70 5 -119t12 -77t19.5 -43.5t25 -20t30.5 -4.5t30 4.5t24 20t19 43.5t11 77t4 119q0 58 -3 102t-9.5 72.5t-14 47t-19.5 27.5 t-22.5 12t-25.5 3t-25.5 -3t-20.5 -12t-17 -27.5t-12.5 -47t-8 -72.5t-2.5 -102z" />
<glyph unicode="&#xf4;" d="M52 600q0 146 31.5 260t91 190t143.5 117t190 47q98 0 174 -13t140 -43t109 -77.5t76 -115.5t46 -158.5t15 -206.5q0 -146 -32 -259t-92 -189t-145 -117t-191 -47q-97 0 -173.5 13t-139.5 43t-108 77t-75.5 115t-45 158t-14.5 206zM138 1242q34 66 78 133t107 153 q13 18 31 18q132 6 282 6h138q74 -82 190 -236q2 -2 8 -10l10.5 -14t10 -14t8.5 -13.5t3 -8.5q0 -8 -10 -8q-104 -4 -162 -4q-68 0 -142 4q-26 35 -49.5 72.5t-36.5 63.5q-14 24 -36 68q-55 -110 -100 -190q-4 -8 -13 -14t-17 -6q-108 -4 -163 -4q-67 0 -137 4zM470 600 q0 -70 5 -119t12 -77t19.5 -43.5t25 -20t30.5 -4.5t30 4.5t24 20t19 43.5t11 77t4 119q0 58 -3 102t-9.5 72.5t-14 47t-19.5 27.5t-22.5 12t-25.5 3t-25.5 -3t-20.5 -12t-17 -27.5t-12.5 -47t-8 -72.5t-2.5 -102z" />
<glyph unicode="&#xf5;" d="M52 600q0 146 31.5 260t91 190t143.5 117t190 47q98 0 174 -13t140 -43t109 -77.5t76 -115.5t46 -158.5t15 -206.5q0 -146 -32 -259t-92 -189t-145 -117t-191 -47q-97 0 -173.5 13t-139.5 43t-108 77t-75.5 115t-45 158t-14.5 206zM172 1458q0 12 10 17q80 50 132.5 69.5 t99.5 21.5q46 0 128 -26t124 -26q68 0 182 58q46 -74 84 -146q3 -6 14 -24.5t15.5 -28t4.5 -13.5q0 -12 -10 -18q-144 -98 -244 -98q-43 0 -116.5 22t-115.5 22q-72 0 -182 -56q-36 58 -81 140q-4 8 -11.5 21t-12.5 22t-10.5 18t-8 16t-2.5 9zM470 600q0 -70 5 -119t12 -77 t19.5 -43.5t25 -20t30.5 -4.5t30 4.5t24 20t19 43.5t11 77t4 119q0 58 -3 102t-9.5 72.5t-14 47t-19.5 27.5t-22.5 12t-25.5 3t-25.5 -3t-20.5 -12t-17 -27.5t-12.5 -47t-8 -72.5t-2.5 -102z" />
<glyph unicode="&#xf6;" d="M52 600q0 146 31.5 260t91 190t143.5 117t190 47q98 0 174 -13t140 -43t109 -77.5t76 -115.5t46 -158.5t15 -206.5q0 -146 -32 -259t-92 -189t-145 -117t-191 -47q-97 0 -173.5 13t-139.5 43t-108 77t-75.5 115t-45 158t-14.5 206zM190 1416q0 56 2 128q60 3 136 3 q74 0 152 -3q8 0 14 -6t6 -14q2 -81 2 -144q0 -56 -2 -128q-60 -2 -102 -2q-70 0 -186 6q-8 0 -14 6t-6 14q-2 80 -2 140zM470 600q0 -70 5 -119t12 -77t19.5 -43.5t25 -20t30.5 -4.5t30 4.5t24 20t19 43.5t11 77t4 119q0 58 -3 102t-9.5 72.5t-14 47t-19.5 27.5t-22.5 12 t-25.5 3t-25.5 -3t-20.5 -12t-17 -27.5t-12.5 -47t-8 -72.5t-2.5 -102zM634 1416q0 56 2 128q60 3 132 3q78 0 156 -3q8 0 14 -6t6 -14q2 -81 2 -144q0 -56 -2 -128q-60 -2 -102 -2q-70 0 -186 6q-8 0 -14 6t-6 14q-2 79 -2 140z" />
<glyph unicode="&#xf7;" horiz-adv-x="996" d="M58 602q0 59 2 146q96 4 499 4q274 0 397 -4q8 0 14 -6t6 -14q2 -62 2 -170q0 -39 -2 -126q-29 -2 -206 -3t-241 -1q-50 0 -223.5 3t-225.5 5q-8 0 -14 6t-6 14q-2 104 -2 146zM344 200q0 66 2 138q73 4 148 4q66 0 172 -4q8 0 14 -6t6 -14q2 -82 2 -154q0 -64 -2 -136 q-44 -2 -108 -2q-92 0 -212 6q-8 0 -14 6t-6 14q-2 78 -2 148zM344 1008q0 66 2 138q73 4 148 4q66 0 172 -4q8 0 14 -6t6 -14q2 -82 2 -154q0 -64 -2 -136q-44 -2 -108 -2q-92 0 -212 6q-8 0 -14 6t-6 14q-2 78 -2 148z" />
<glyph unicode="&#xf8;" d="M52 600q0 146 31.5 260t91 190t143.5 117t190 47q172 0 281 -42l87 176l108 -52l-94 -179q91 -68 134.5 -194.5t43.5 -322.5q0 -146 -32 -259t-92 -189t-145 -117t-191 -47q-166 0 -276 40l-88 -176l-108 52l94 178q-91 68 -134.5 194t-43.5 324zM470 600q0 -24 1 -62 l59 112l89 180q-12 20 -27 27t-36 7q-15 0 -25.5 -3t-20.5 -12t-17 -27.5t-12.5 -47t-8 -72.5t-2.5 -102zM501 368q11 -19 26 -25.5t35 -6.5q18 0 30 4.5t24 20t19 43.5t11 77t4 119q0 24 -1 62l-31 -60z" />
<glyph unicode="&#xf9;" horiz-adv-x="1056" d="M54 592q0 288 8 608q95 4 175 4q82 0 205 -4q8 0 14 -6t6 -14q8 -376 8 -648q0 -66 4.5 -107t15.5 -62t24.5 -28t35.5 -7q30 0 45 13.5t23 58t8 132.5q0 348 8 668q96 4 175 4q82 0 205 -4q8 0 14 -6t6 -14q8 -376 8 -588q0 -128 -19.5 -228t-56 -170t-91.5 -117 t-124 -70t-155 -27q-70 0 -127 6t-110 19t-93 36t-75.5 57t-60 80t-42.5 106.5t-26 137t-8 170.5zM238 1550q70 4 146 4q66 0 174 -4q8 0 17 -6t13 -14q18 -34 49 -92t56 -105t49 -93q-168 0 -322 8q-8 0 -17 6t-14 14q-109 197 -151 282z" />
<glyph unicode="&#xfa;" horiz-adv-x="1056" d="M54 592q0 288 8 608q95 4 175 4q82 0 205 -4q8 0 14 -6t6 -14q8 -376 8 -648q0 -66 4.5 -107t15.5 -62t24.5 -28t35.5 -7q30 0 45 13.5t23 58t8 132.5q0 348 8 668q96 4 175 4q82 0 205 -4q8 0 14 -6t6 -14q8 -376 8 -588q0 -128 -19.5 -228t-56 -170t-91.5 -117 t-124 -70t-155 -27q-70 0 -127 6t-110 19t-93 36t-75.5 57t-60 80t-42.5 106.5t-26 137t-8 170.5zM366 1260.5q0 7.5 35 62.5q63 100 155 227q74 4 160 4q80 0 184 -4q10 0 10 -8q0 -10 -41 -60q-28 -34 -97.5 -113t-105.5 -125q-146 0 -290 8q-10 1 -10 8.5z" />
<glyph unicode="&#xfb;" horiz-adv-x="1056" d="M54 592q0 288 8 608q95 4 175 4q82 0 205 -4q8 0 14 -6t6 -14q8 -376 8 -648q0 -66 4.5 -107t15.5 -62t24.5 -28t35.5 -7q30 0 45 13.5t23 58t8 132.5q0 348 8 668q96 4 175 4q82 0 205 -4q8 0 14 -6t6 -14q8 -376 8 -588q0 -128 -19.5 -228t-56 -170t-91.5 -117 t-124 -70t-155 -27q-70 0 -127 6t-110 19t-93 36t-75.5 57t-60 80t-42.5 106.5t-26 137t-8 170.5zM118 1242q34 66 78 133t107 153q13 18 31 18q132 6 282 6h138q74 -82 190 -236q2 -2 8 -10l10.5 -14t10 -14t8.5 -13.5t3 -8.5q0 -8 -10 -8q-104 -4 -162 -4q-68 0 -142 4 q-26 35 -49.5 72.5t-36.5 63.5q-14 24 -36 68q-55 -110 -100 -190q-4 -8 -13 -14t-17 -6q-108 -4 -163 -4q-67 0 -137 4z" />
<glyph unicode="&#xfc;" horiz-adv-x="1056" d="M54 592q0 288 8 608q95 4 175 4q82 0 205 -4q8 0 14 -6t6 -14q8 -376 8 -648q0 -66 4.5 -107t15.5 -62t24.5 -28t35.5 -7q30 0 45 13.5t23 58t8 132.5q0 348 8 668q96 4 175 4q82 0 205 -4q8 0 14 -6t6 -14q8 -376 8 -588q0 -128 -19.5 -228t-56 -170t-91.5 -117 t-124 -70t-155 -27q-70 0 -127 6t-110 19t-93 36t-75.5 57t-60 80t-42.5 106.5t-26 137t-8 170.5zM170 1416q0 56 2 128q60 3 136 3q74 0 152 -3q8 0 14 -6t6 -14q2 -81 2 -144q0 -56 -2 -128q-60 -2 -102 -2q-70 0 -186 6q-8 0 -14 6t-6 14q-2 80 -2 140zM614 1416 q0 56 2 128q60 3 132 3q78 0 156 -3q8 0 14 -6t6 -14q2 -81 2 -144q0 -56 -2 -128q-60 -2 -102 -2q-70 0 -186 6q-8 0 -14 6t-6 14q-2 79 -2 140z" />
<glyph unicode="&#xfd;" horiz-adv-x="1050" d="M16 1193q92 11 210 11q85 0 160 -5q10 0 19 -5.5t11 -14.5q48 -146 128 -436q78 280 129 436q3 8 12 13.5t19 6.5q76 5 160 5q118 0 210 -11q-80 -336 -168 -510q-62 -107 -161 -189q4 -330 5 -494q-95 -4 -179 -4q-86 0 -209 4q-8 0 -14 6t-6 14q0 150 3 474 q-101 83 -163 189q-86 172 -166 510zM366 1260.5q0 7.5 35 62.5q63 100 155 227q74 4 160 4q80 0 184 -4q10 0 10 -8q0 -10 -41 -60q-28 -34 -97.5 -113t-105.5 -125q-146 0 -290 8q-10 1 -10 8.5z" />
<glyph unicode="&#xfe;" horiz-adv-x="1020" d="M92 600q0 280 8 600q95 4 175 4q82 0 205 -4q8 0 14 -6t6 -14q0 -36 -1 -86q52 0 93.5 -2t85.5 -7t77.5 -14t67 -22t59 -32t49 -44t39 -58t27.5 -73.5t17.5 -91t5.5 -110.5q0 -75 -12 -135.5t-34 -106.5t-57 -80.5t-77 -57t-97 -37t-114 -21t-131 -6.5q2 -132 2 -196 q-95 -4 -175 -4q-82 0 -205 4q-8 0 -14 6t-6 14q-8 376 -8 580zM492 524h20q18 0 31 2t27.5 9t23 18t14.5 32t6 49.5t-1 45.5t-4.5 31.5t-9 21.5t-16 12t-24 6.5t-33.5 1.5q-4 0 -15 -0.5t-18 -0.5q-1 -100 -1 -152v-38v-38z" />
<glyph unicode="&#xff;" horiz-adv-x="1050" d="M16 1193q92 11 210 11q85 0 160 -5q10 0 19 -5.5t11 -14.5q48 -146 128 -436q78 280 129 436q3 8 12 13.5t19 6.5q76 5 160 5q118 0 210 -11q-80 -336 -168 -510q-62 -107 -161 -189q4 -330 5 -494q-95 -4 -179 -4q-86 0 -209 4q-8 0 -14 6t-6 14q0 150 3 474 q-101 83 -163 189q-86 172 -166 510zM166 1416q0 56 2 128q60 3 136 3q74 0 152 -3q8 0 14 -6t6 -14q2 -81 2 -144q0 -56 -2 -128q-60 -2 -102 -2q-70 0 -186 6q-8 0 -14 6t-6 14q-2 79 -2 140zM610 1416q0 56 2 128q60 3 132 3q78 0 156 -3q8 0 14 -6t6 -14q2 -81 2 -144 q0 -56 -2 -128q-60 -2 -102 -2q-70 0 -186 6q-8 0 -14 6t-6 14q-2 80 -2 140z" />
<glyph unicode="&#x152;" horiz-adv-x="1448" d="M52 600q0 146 31.5 259t91 188t143.5 115t190 46q76 0 136 -8q108 4 411 4q226 0 349 -4q8 0 14 -6t6 -14q2 -122 2 -173q0 -78 -2 -147q-84 -4 -318 -4h-75q0 -17 -0.5 -51.5t-0.5 -52.5q152 -1 238 -4q8 0 14 -6t6 -14q2 -82 2 -150q0 -62 -2 -134h-258 q0 -18 0.5 -52.5t0.5 -51.5h23q245 0 354 -4q8 0 14 -6t6 -14q2 -122 2 -173q0 -78 -2 -147q-95 -4 -343 -4q-157 0 -419 8q-28 -4 -58 -6q-117 0 -204 19t-155.5 61.5t-110.5 113t-64 172.5t-22 240zM470 600q0 -70 5 -119t12 -77t19.5 -43.5t25 -20t30.5 -4.5t30 4.5 t24 20t19 43.5t11 77t4 119q0 58 -3 102t-9.5 72.5t-14 47t-19.5 27.5t-22.5 12t-25.5 3t-25.5 -3t-20.5 -12t-17 -27.5t-12.5 -47t-8 -72.5t-2.5 -102z" />
<glyph unicode="&#x153;" horiz-adv-x="1448" d="M52 600q0 146 31.5 259t91 188t143.5 115t190 46q76 0 136 -8q108 4 411 4q226 0 349 -4q8 0 14 -6t6 -14q2 -122 2 -173q0 -78 -2 -147q-84 -4 -318 -4h-75q0 -17 -0.5 -51.5t-0.5 -52.5q152 -1 238 -4q8 0 14 -6t6 -14q2 -82 2 -150q0 -62 -2 -134h-258 q0 -18 0.5 -52.5t0.5 -51.5h23q245 0 354 -4q8 0 14 -6t6 -14q2 -122 2 -173q0 -78 -2 -147q-95 -4 -343 -4q-157 0 -419 8q-28 -4 -58 -6q-117 0 -204 19t-155.5 61.5t-110.5 113t-64 172.5t-22 240zM470 600q0 -70 5 -119t12 -77t19.5 -43.5t25 -20t30.5 -4.5t30 4.5 t24 20t19 43.5t11 77t4 119q0 58 -3 102t-9.5 72.5t-14 47t-19.5 27.5t-22.5 12t-25.5 3t-25.5 -3t-20.5 -12t-17 -27.5t-12.5 -47t-8 -72.5t-2.5 -102z" />
<glyph unicode="&#x178;" horiz-adv-x="1050" d="M16 1193q92 11 210 11q85 0 160 -5q10 0 19 -5.5t11 -14.5q48 -146 128 -436q78 280 129 436q3 8 12 13.5t19 6.5q76 5 160 5q118 0 210 -11q-80 -336 -168 -510q-62 -107 -161 -189q4 -330 5 -494q-95 -4 -179 -4q-86 0 -209 4q-8 0 -14 6t-6 14q0 150 3 474 q-101 83 -163 189q-86 172 -166 510zM166 1416q0 56 2 128q60 3 136 3q74 0 152 -3q8 0 14 -6t6 -14q2 -81 2 -144q0 -56 -2 -128q-60 -2 -102 -2q-70 0 -186 6q-8 0 -14 6t-6 14q-2 79 -2 140zM610 1416q0 56 2 128q60 3 132 3q78 0 156 -3q8 0 14 -6t6 -14q2 -81 2 -144 q0 -56 -2 -128q-60 -2 -102 -2q-70 0 -186 6q-8 0 -14 6t-6 14q-2 80 -2 140z" />
<glyph unicode="&#x2000;" horiz-adv-x="786" />
<glyph unicode="&#x2001;" horiz-adv-x="1572" />
<glyph unicode="&#x2002;" horiz-adv-x="786" />
<glyph unicode="&#x2003;" horiz-adv-x="1572" />
<glyph unicode="&#x2004;" horiz-adv-x="524" />
<glyph unicode="&#x2005;" horiz-adv-x="393" />
<glyph unicode="&#x2006;" horiz-adv-x="262" />
<glyph unicode="&#x2007;" horiz-adv-x="262" />
<glyph unicode="&#x2008;" horiz-adv-x="196" />
<glyph unicode="&#x2009;" horiz-adv-x="314" />
<glyph unicode="&#x200a;" horiz-adv-x="87" />
<glyph unicode="&#x2010;" horiz-adv-x="836" d="M58 602q0 59 2 146q96 4 443 4q170 0 293 -4q8 0 14 -6t6 -14q2 -62 2 -170q0 -39 -2 -126q-98 -4 -343 -4q-48 0 -192.5 3t-200.5 5q-8 0 -14 6t-6 14q-2 104 -2 146z" />
<glyph unicode="&#x2011;" horiz-adv-x="836" d="M58 602q0 59 2 146q96 4 443 4q170 0 293 -4q8 0 14 -6t6 -14q2 -62 2 -170q0 -39 -2 -126q-98 -4 -343 -4q-48 0 -192.5 3t-200.5 5q-8 0 -14 6t-6 14q-2 104 -2 146z" />
<glyph unicode="&#x2012;" horiz-adv-x="836" d="M58 602q0 59 2 146q96 4 443 4q170 0 293 -4q8 0 14 -6t6 -14q2 -62 2 -170q0 -39 -2 -126q-98 -4 -343 -4q-48 0 -192.5 3t-200.5 5q-8 0 -14 6t-6 14q-2 104 -2 146z" />
<glyph unicode="&#x2013;" horiz-adv-x="1100" d="M58 602q0 59 3 146q129 4 597 4q229 0 394 -4q11 0 19 -6t8 -14q3 -62 3 -170q0 -39 -3 -126q-132 -4 -462 -4q-65 0 -259.5 3t-269.5 5q-11 0 -19 6t-8 14q-3 104 -3 146z" />
<glyph unicode="&#x2014;" horiz-adv-x="2124" d="M58 602q0 59 5 146q259 4 1194 4q458 0 790 -4q21 0 37.5 -6t16.5 -14q5 -62 5 -170q0 -39 -5 -126q-264 -4 -925 -4q-129 0 -518.5 3t-540.5 5q-21 0 -37.5 6t-16.5 14q-5 104 -5 146z" />
<glyph unicode="&#x202f;" horiz-adv-x="314" />
<glyph unicode="&#x205f;" horiz-adv-x="393" />
<glyph unicode="&#x20ac;" horiz-adv-x="864" d="M29 477q-1 43 1 95q16 0 56 1v27v16v16h-10h-8q-6 0 -11 4.5t-6 11.5q-1 44 -1 81q0 42 1 94q16 -1 55 1q18 86 52 153t80.5 111.5t109 73t132.5 40.5t156 12q56 0 106 -8t122 -26l-43 -314l-185 13q-66 5 -96 -53q84 -1 125 -3q6 0 11 -5q6 -4 6 -11q2 -25 2 -87 q0 -60 -2 -92q-30 -2 -178 -2v-26v-26q104 0 128 -2q6 0 11 -5t6 -12q2 -41 2 -93q0 -40 -2 -85q-34 -2 -112 -2q29 -58 99 -53l185 12l41 -316q-120 -22 -230 -22q-73 0 -132.5 7t-115.5 23t-99.5 45t-80 70.5t-61.5 101t-39 135.5q-40 1 -57 2q-6 0 -11 5q-6 5 -6 11 q-2 44 -1 81z" />
<glyph unicode="&#x25fc;" horiz-adv-x="1210" d="M0 0v1210h1210v-1210h-1210z" />
</font>
</defs>
</svg>
